<svg xmlns="http://www.w3.org/2000/svg" width="194.475" height="39.107" viewBox="0 0 194.475 39.107"><path d="M51.1,30.3h4.676V21.159H66.4V17.12H55.776V12.338H66.722V8.3H51.1Z" transform="translate(3.204 0.52)"/><path d="M76.2,30.391A8.116,8.116,0,0,0,84.7,22a8.449,8.449,0,0,0-16.9,0A8.089,8.089,0,0,0,76.2,30.391Zm0-3.719c-2.657,0-4.038-2.125-4.038-4.676,0-2.444,1.488-4.676,4.038-4.676,2.657,0,4.145,2.125,4.145,4.676C80.34,24.44,78.852,26.671,76.2,26.671Z" transform="translate(4.251 0.853)"/><path d="M86.6,29.966h4.145V19.445a5.3,5.3,0,0,1,3.932-1.807,3.985,3.985,0,0,1,1.169.106V13.6a7.01,7.01,0,0,0-5.1,2.55V14.025H86.6V29.966Z" transform="translate(5.43 0.853)"/><path d="M103.326,30.623a4.914,4.914,0,0,0,3.507-1.063l-.85-3.188a2.477,2.477,0,0,1-1.488.425,1.513,1.513,0,0,1-1.488-1.7V17.87H106.2V14.257h-3.188V9.9H98.757v4.357H96.1v3.719h2.657v8.289C98.757,29.029,100.351,30.623,103.326,30.623Z" transform="translate(6.026 0.621)"/><path d="M128.166,29.959h4.251V18.482c0-3.294-1.7-4.782-4.676-4.782a7.077,7.077,0,0,0-5.526,2.869,4.292,4.292,0,0,0-4.463-2.869,6.9,6.9,0,0,0-5.207,2.444V14.019H108.4V29.959h4.145V19.226a4.367,4.367,0,0,1,3.294-1.913c1.7,0,2.338,1.063,2.338,2.55v10.1h4.251V19.226a4.277,4.277,0,0,1,3.294-1.807c1.7,0,2.338,1.063,2.338,2.55v9.989Z" transform="translate(6.797 0.859)"/><path d="M144.433,29.966h4.145V19.657c0-4.57-3.294-6.057-7.014-6.057a10.23,10.23,0,0,0-7.014,2.55l1.594,2.763A6.778,6.778,0,0,1,140.82,17c2.125,0,3.507,1.063,3.507,2.657v2.232a6.574,6.574,0,0,0-5.1-1.913c-2.55,0-5.526,1.382-5.526,5.1a5.287,5.287,0,0,0,5.526,5.314,6.793,6.793,0,0,0,5.1-2.019v1.594Zm0-3.826a4.191,4.191,0,0,1-3.4,1.382c-1.7,0-2.976-.85-2.976-2.338s1.382-2.444,2.976-2.444a4.191,4.191,0,0,1,3.4,1.382Z" transform="translate(8.383 0.853)"/><path d="M157.12,30.623a4.914,4.914,0,0,0,3.507-1.063l-.85-3.188a2.477,2.477,0,0,1-1.488.425,1.513,1.513,0,0,1-1.488-1.7V17.87h3.188V14.257H156.8V9.9H152.55v4.357H150v3.719h2.657v8.289C152.657,29.029,154.251,30.623,157.12,30.623Z" transform="translate(9.405 0.621)"/><path d="M164.35,12.1a2.55,2.55,0,1,0-2.55-2.55A2.586,2.586,0,0,0,164.35,12.1Zm-2.125,18.278h4.145V14.439h-4.145Z" transform="translate(10.145 0.439)"/><path d="M169.1,22a8.12,8.12,0,0,0,8.5,8.4,7.23,7.23,0,0,0,6.27-2.869l-2.763-2.55a3.991,3.991,0,0,1-3.4,1.7A4.332,4.332,0,0,1,173.351,22a4.332,4.332,0,0,1,4.357-4.676,3.991,3.991,0,0,1,3.4,1.7l2.763-2.55A7.375,7.375,0,0,0,177.6,13.6,8.12,8.12,0,0,0,169.1,22Z" transform="translate(10.603 0.853)"/><path d="M19.022,0H38.151V9.777H9.564V39.107H0V0H19.022Zm9.564,29.224H19.129V19.554H38.151v10.1a9.671,9.671,0,0,1-2.657,6.7,8.839,8.839,0,0,1-6.482,2.763h-.319V29.224Z" fill="#6851ff" fillRule="evenodd"/></svg>