<svg xmlns="http://www.w3.org/2000/svg" xmlns:xlink="http://www.w3.org/1999/xlink" width="186.771" height="33.39" viewBox="0 0 186.771 33.39"><defs><clipPath id="a"><rect width="186.771" height="33.39"/></clipPath></defs><g clip-path="url(#a)"><path d="M37.7,9.343a11.815,11.815,0,0,0-12.1,12.024A11.767,11.767,0,0,0,37.7,33.39,11.883,11.883,0,0,0,49.882,21.366,11.835,11.835,0,0,0,37.7,9.343Zm.081,19.01c-3.9,0-6.662-3.006-6.662-7.068s2.762-7.068,6.662-7.068a6.708,6.708,0,0,1,6.743,7.068A6.756,6.756,0,0,1,37.777,28.353ZM51.344,14.542h3.331V32.9h5.443V9.749H51.344ZM12.024,14.3A6.048,6.048,0,0,1,17.954,18.6h5.687A11.383,11.383,0,0,0,12.024,9.261,11.913,11.913,0,0,0,0,21.366,11.767,11.767,0,0,0,12.1,33.39a11.345,11.345,0,0,0,11.536-9.343H17.954A6.093,6.093,0,0,1,12.1,28.434c-3.9,0-6.662-3.006-6.662-7.068S8.124,14.3,12.024,14.3Zm141.764,4.793-3.981-.569c-1.869-.244-3.25-.894-3.25-2.356,0-1.625,1.787-2.437,4.143-2.437,2.6,0,4.306,1.137,4.631,2.925h5.2c-.569-4.631-4.143-7.393-9.668-7.393-5.687,0-9.505,2.925-9.505,7.068,0,3.9,2.437,6.256,7.474,6.905l3.981.569c1.95.244,3.006,1.056,3.006,2.437,0,1.869-1.869,2.6-4.468,2.6-3.168,0-4.956-1.3-5.281-3.25h-5.281c.487,4.549,4.062,7.718,10.48,7.718,5.849,0,9.83-2.681,9.83-7.312C161.1,21.935,158.256,19.823,153.788,19.091ZM57.437.244a3.4,3.4,0,0,0-3.493,3.412,3.352,3.352,0,0,0,3.493,3.412,3.413,3.413,0,1,0,0-6.824ZM136.565,17.71c0-5.037-3.087-8.368-9.505-8.368-6.093,0-9.505,3.087-10.236,7.8h5.362c.244-1.869,1.706-3.331,4.793-3.331,2.762,0,4.062,1.219,4.062,2.681,0,1.95-2.437,2.437-5.524,2.762-4.143.487-9.261,1.869-9.261,7.23,0,4.143,3.087,6.824,8.043,6.824,3.9,0,6.256-1.625,7.474-4.143a3.976,3.976,0,0,0,4.306,3.737h3.168V28.109h-2.681V17.71ZM131.2,23.478c0,3.087-2.681,5.362-6.012,5.362-2.031,0-3.737-.812-3.737-2.681,0-2.275,2.762-2.925,5.281-3.168,2.437-.244,3.737-.731,4.468-1.787Zm-28.6-14.136a9.316,9.316,0,0,0-7.312,3.331V0H89.933V32.9h5.281V29.9a9.368,9.368,0,0,0,7.393,3.493c6.5,0,11.374-5.118,11.374-12.024S109.025,9.343,102.607,9.343Zm-.812,19.01c-3.9,0-6.662-3.006-6.662-7.068a6.708,6.708,0,0,1,6.743-7.068c3.9,0,6.662,3.006,6.662,7.068C108.537,25.428,105.694,28.353,101.794,28.353ZM77.016,9.343a8.266,8.266,0,0,0-7.149,3.412V9.749H64.5V32.9h5.362V20.31c0-3.575,2.275-6.012,5.606-6.012,3.087,0,5.037,2.193,5.037,5.362V32.9h5.362V19.254C85.871,13.4,82.865,9.343,77.016,9.343ZM186.771,20.635A10.946,10.946,0,0,0,175.4,9.343a11.748,11.748,0,0,0-12.024,12.024,11.717,11.717,0,0,0,12.1,12.024c5.606,0,9.993-3.331,11.13-8.043H181c-.812,2.031-2.762,3.25-5.443,3.25-3.493,0-6.093-2.112-6.662-5.931h17.873V20.635Zm-17.548-1.787a6.025,6.025,0,0,1,6.093-4.793,5.612,5.612,0,0,1,5.931,4.793Z" fill="#0052ff"/></g></svg>