<svg xmlns="http://www.w3.org/2000/svg" width="293" height="49.306" viewBox="0 0 293 49.306"><g transform="translate(-79 -32)"><g transform="translate(79 32)"><path d="M47.438,29.08h3.043V21.988h4.136c4.678,0,6.993-2.827,6.993-6.55s-2.295-6.53-6.983-6.53h-7.19Zm3.043-9.672V11.519H54.3c3.014,0,4.245,1.635,4.245,3.92s-1.231,3.969-4.205,3.969Zm17.405.69a3.474,3.474,0,0,1,3.624-3.792c2.029,0,3.24,1.29,3.24,3.506V29.08H77.7V19.457c0-3.772-2.068-5.7-5.181-5.7a4.429,4.429,0,0,0-4.481,2.659h-.187v-7.5H64.942V29.08h2.945Zm18.142,9.317a4.728,4.728,0,0,0,4.471-2.4h.118V29.08h2.876V19.034c0-4.4-3.467-5.279-5.87-5.279-2.738,0-5.259,1.1-6.244,3.861l2.768.63a3.533,3.533,0,0,1,3.516-2.108c1.9,0,2.876.995,2.876,2.708v.069c0,1.073-1.1,1.054-3.821,1.369-2.866.335-5.8,1.083-5.8,4.521C80.917,27.78,83.153,29.415,86.029,29.415Zm.64-2.364C85,27.051,83.8,26.3,83.8,24.845c0-1.576,1.4-2.137,3.1-2.364.955-.128,3.221-.384,3.644-.808v1.95C90.55,25.416,89.121,27.051,86.669,27.051ZM97.417,29.08h2.945V19.841a3.4,3.4,0,0,1,3.614-3.408,6.951,6.951,0,0,1,1.536.177V13.794a11.992,11.992,0,0,0-1.251-.069,3.937,3.937,0,0,0-3.841,2.63h-.158v-2.4H97.417Zm10.644,0h2.945V19.753a3.239,3.239,0,0,1,3.1-3.457,2.605,2.605,0,0,1,2.767,2.728V29.08h2.935V19.438a2.9,2.9,0,0,1,3.033-3.142,2.638,2.638,0,0,1,2.836,2.915V29.08h2.944V18.935c0-3.457-1.93-5.181-4.668-5.181a4.727,4.727,0,0,0-4.54,2.659h-.158a4.094,4.094,0,0,0-4.068-2.659,4.137,4.137,0,0,0-4.117,2.659h-.187V13.952h-2.827Zm28.914.335a4.726,4.726,0,0,0,4.471-2.4h.119V29.08h2.875V19.034c0-4.4-3.467-5.279-5.869-5.279-2.738,0-5.26,1.1-6.245,3.861l2.767.63a3.535,3.535,0,0,1,3.516-2.108c1.9,0,2.877.995,2.877,2.708v.069c0,1.073-1.1,1.054-3.821,1.369-2.866.335-5.8,1.083-5.8,4.521C131.864,27.78,134.1,29.415,136.974,29.415Zm.641-2.364c-1.664,0-2.866-.749-2.866-2.206,0-1.576,1.4-2.137,3.1-2.364.955-.128,3.22-.384,3.644-.808v1.95C141.5,25.416,140.067,27.051,137.615,27.051Zm8.716-15.522h6.283V29.08h3.034V11.529h6.293V8.909h-15.61ZM163.584,29.08h2.944V19.841a3.4,3.4,0,0,1,3.615-3.408,6.948,6.948,0,0,1,1.536.177V13.794a11.977,11.977,0,0,0-1.251-.069,3.936,3.936,0,0,0-3.84,2.63h-.159v-2.4h-2.846Zm14.912.335a4.73,4.73,0,0,0,4.471-2.4h.117V29.08h2.877V19.034c0-4.4-3.467-5.279-5.87-5.279-2.738,0-5.259,1.1-6.243,3.861l2.767.63a3.532,3.532,0,0,1,3.516-2.108c1.9,0,2.875.995,2.875,2.708v.069c0,1.073-1.1,1.054-3.821,1.369-2.866.335-5.8,1.083-5.8,4.521C173.384,27.78,175.62,29.415,178.5,29.415Zm.639-2.364c-1.664,0-2.866-.749-2.866-2.206,0-1.576,1.4-2.137,3.1-2.364.955-.128,3.222-.384,3.646-.808v1.95C183.017,25.416,181.589,27.051,179.136,27.051Zm17.12,2.334c3.575,0,5.889-2.147,6.214-5.092H199.6a3.231,3.231,0,0,1-3.328,2.6c-2.491,0-4.1-2.078-4.1-5.378,0-3.24,1.635-5.279,4.1-5.279a3.245,3.245,0,0,1,3.328,2.6h2.866c-.314-3.053-2.806-5.082-6.243-5.082-4.265,0-7.023,3.211-7.023,7.83C189.2,26.145,191.863,29.385,196.256,29.385Zm15.884,0c3.3,0,5.633-1.625,6.3-4.087l-2.787-.5a3.422,3.422,0,0,1-3.487,2.157c-2.521,0-4.216-1.635-4.294-4.55H218.63V21.358c0-5.466-3.27-7.6-6.7-7.6-4.216,0-6.994,3.211-6.994,7.859C204.94,26.312,207.678,29.385,212.14,29.385ZM207.884,20.2a4.064,4.064,0,0,1,4.068-4.009,3.736,3.736,0,0,1,3.792,4.009Z" transform="translate(15.299 4.818)" fill="#202225"/><path d="M11.953,26.943C7.4,25.672,4.482,23.731,4.482,21.556c0-3.829,9.031-6.934,20.171-6.934s20.171,3.1,20.171,6.934c0,2.175-2.913,4.116-7.471,5.387v.227c7.162-1.617,11.953-4.562,11.953-7.925C49.306,14.139,38.269,10,24.653,10S0,14.139,0,19.245c0,3.364,4.791,6.308,11.953,7.925Z" transform="translate(0 5.408)" fill="#00a4eb"/><path d="M28.144,35.859c-1.52,5.406-4.109,8.965-7.047,8.965-4.68,0-8.474-9.031-8.474-20.171S16.417,4.482,21.1,4.482c2.938,0,5.527,3.559,7.047,8.965H28.4C26.61,5.465,22.977,0,18.786,0,12.829,0,8,11.038,8,24.653s4.829,24.653,10.786,24.653c4.191,0,7.824-5.465,9.61-13.447Z" transform="translate(4.326)" fill="#495db8"/></g><g transform="translate(324.437 48.302)"><rect width="48" height="23" rx="4" transform="translate(-0.437 -0.437)" fill="#f0ce14"/><text transform="translate(6.563 2.563)" fill="#fff" font-size="14" font-family="Inter" font-weight="600"><tspan x="0" y="14">NFTs</tspan></text></g></g></svg>