<svg xmlns="http://www.w3.org/2000/svg" width="192.762" height="36.527" viewBox="0 0 192.762 36.527"><g transform="translate(0.025 0.025)"><path d="M146.7,17.115c-1.05-.7-2.216-1.166-3.266-1.75a10.163,10.163,0,0,1-2.1-1.283,2.094,2.094,0,0,1,.233-3.266c1.516-1.05,4.083-.467,4.433,1.633a.114.114,0,0,0,.117.117h2.333c.117,0,.117,0,.117-.117a4.413,4.413,0,0,0-1.75-3.383A5.574,5.574,0,0,0,143.549,7.9c-6.182,0-6.766,6.532-3.383,8.515.35.233,3.616,1.866,4.783,2.566A2.379,2.379,0,0,1,146,22.014a2.923,2.923,0,0,1-2.8,1.516,2.978,2.978,0,0,1-2.683-1.866,1.734,1.734,0,0,1-.117-.7.114.114,0,0,0-.117-.117h-2.566a.114.114,0,0,0-.117.117,3.919,3.919,0,0,0,1.75,3.733,5.808,5.808,0,0,0,3.733,1.283c3.5,0,5.249-1.983,5.6-3.966A4.556,4.556,0,0,0,146.7,17.115Z" transform="translate(22.891 1.299)" fill="#161616"/><path d="M52.748,8.217H50.3a.114.114,0,0,0-.117.117l-2.1,6.882c0,.117-.117.117-.233,0l-2.1-6.882a.114.114,0,0,0-.117-.117H42.017a.114.114,0,0,0-.117.117v17.5a.114.114,0,0,0,.117.117h2.566a.114.114,0,0,0,.117-.117V12.416c0-.117.117-.117.233,0l2.1,6.882.117.467a.114.114,0,0,0,.117.117h1.983a.114.114,0,0,0,.117-.117l.117-.467,2.1-6.882c0-.117.233-.117.233,0v13.3a.114.114,0,0,0,.117.117H54.5a.114.114,0,0,0,.117-.117V8.217A.114.114,0,0,0,54.5,8.1h-1.75Z" transform="translate(6.959 1.332)" fill="#161616"/><path d="M113.415,8.217h0L111.2,15.1c0,.117-.117.117-.233,0l-2.1-6.882a.114.114,0,0,0-.117-.117h-3.733a.114.114,0,0,0-.117.117v17.5a.114.114,0,0,0,.117.117h2.566a.114.114,0,0,0,.117-.117v-13.3c0-.117.117-.117.233,0l2.1,6.882.117.467a.114.114,0,0,0,.117.117h1.983a.114.114,0,0,0,.117-.117l.117-.467,2.1-6.882c0-.117.233-.117.233,0v13.3a.114.114,0,0,0,.117.117H117.5a.114.114,0,0,0,.117-.117V8.217A.114.114,0,0,0,117.5,8.1h-4.083Z" transform="translate(17.447 1.332)" fill="#161616"/><path d="M85.915,8.2h-11.9a.114.114,0,0,0-.117.117v2.216a.114.114,0,0,0,.117.117h4.666V25.814a.114.114,0,0,0,.117.117h2.566a.114.114,0,0,0,.117-.117V10.65h4.666a.114.114,0,0,0,.117-.117L85.915,8.2Z" transform="translate(12.286 1.348)" fill="#161616"/><path d="M98.532,25.83h2.333a.114.114,0,0,0,.117-.117L96.2,8.217a.114.114,0,0,0-.117-.117H92.7a.114.114,0,0,0-.117.117L87.8,25.714c0,.117,0,.117.117.117H90.25a.114.114,0,0,0,.117-.117l1.4-5.133a.114.114,0,0,1,.117-.117h5.133a.114.114,0,0,1,.117.117l1.4,5.249Zm-6.066-7.7,1.866-6.766c0-.117.117-.117.233,0l1.866,6.766c0,.117,0,.117-.117.117H92.583A.114.114,0,0,1,92.466,18.132Z" transform="translate(14.6 1.332)" fill="#161616"/><path d="M132.132,25.83h2.333a.114.114,0,0,0,.117-.117L129.8,8.217a.114.114,0,0,0-.117-.117H126.3a.114.114,0,0,0-.117.117l-4.783,17.5c0,.117,0,.117.117.117h2.333a.114.114,0,0,0,.117-.117l1.4-5.133a.114.114,0,0,1,.117-.117h5.133a.114.114,0,0,1,.117.117l1.4,5.249Zm-5.949-7.7,1.866-6.766c0-.117.117-.117.233,0l1.866,6.766c0,.117,0,.117-.117.117H126.3A.114.114,0,0,1,126.183,18.132Z" transform="translate(20.194 1.332)" fill="#161616"/><path d="M61.683,23.248V17.882a.114.114,0,0,1,.117-.117h6.766a.114.114,0,0,0,.117-.117V15.432a.114.114,0,0,0-.117-.117H61.8a.114.114,0,0,1-.117-.117V10.533a.114.114,0,0,1,.117-.117h7.7a.114.114,0,0,0,.117-.117V8.317A.114.114,0,0,0,69.5,8.2H59.117A.114.114,0,0,0,59,8.317V25.581a.114.114,0,0,0,.117.117H69.732a.114.114,0,0,0,.117-.117V23.248a.114.114,0,0,0-.117-.117l-8.049.117Z" transform="translate(9.806 1.348)" fill="#161616"/><path d="M167.181,25.7l-8.749-8.982V16.6l7.932-8.165c.117-.117,0-.117-.117-.117h-3.383L156.216,15.2c-.117.117-.117,0-.117-.117V8.317a.114.114,0,0,0-.117-.117h-2.566a.114.114,0,0,0-.117.117v17.5a.114.114,0,0,0,.117.117h2.566a.114.114,0,0,0,.117-.117v-7.7a.114.114,0,0,1,.117-.117l7.582,7.815h3.383S167.3,25.7,167.181,25.7Z" transform="translate(25.504 1.348)" fill="#161616"/><path d="M34.3.1,18.9,11.415l2.8-6.649Z" transform="translate(3.13 0)" fill="#e17726" stroke="#e17726" stroke-linecap="round" stroke-linejoin="round" stroke-width="0.25"/><path d="M1.8.1,16.964,11.531,14.281,4.766Z" transform="translate(0.283 0)" fill="#e27625" stroke="#e27625" stroke-linecap="round" stroke-linejoin="round" stroke-width="0.25"/><path d="M27.983,22.7,23.9,28.882l8.749,2.45,2.45-8.515Z" transform="translate(3.962 3.762)" fill="#e27625" stroke="#e27625" stroke-linecap="round" stroke-linejoin="round" stroke-width="0.25"/><path d="M.4,22.817l2.45,8.515,8.749-2.45L7.516,22.7Z" transform="translate(0.05 3.762)" fill="#e27625" stroke="#e27625" stroke-linecap="round" stroke-linejoin="round" stroke-width="0.25"/><path d="M9.95,14.366,7.5,17.982l8.632.35L15.9,9Z" transform="translate(1.232 1.482)" fill="#e27625" stroke="#e27625" stroke-linecap="round" stroke-linejoin="round" stroke-width="0.25"/><path d="M25.2,14.366,19.133,9,18.9,18.448l8.632-.35Z" transform="translate(3.13 1.482)" fill="#e27625" stroke="#e27625" stroke-linecap="round" stroke-linejoin="round" stroke-width="0.25"/><path d="M10,28.866,15.249,26.3,10.7,22.8Z" transform="translate(1.648 3.779)" fill="#e27625" stroke="#e27625" stroke-linecap="round" stroke-linejoin="round" stroke-width="0.25"/><path d="M19.4,26.3l5.249,2.566-.7-6.066Z" transform="translate(3.213 3.779)" fill="#e27625" stroke="#e27625" stroke-linecap="round" stroke-linejoin="round" stroke-width="0.25"/><path d="M24.649,28.366,19.4,25.8l.467,3.383v1.4Z" transform="translate(3.213 4.278)" fill="#d5bfb2" stroke="#d5bfb2" stroke-linecap="round" stroke-linejoin="round" stroke-width="0.25"/><path d="M10,28.35l4.9,2.333v-1.4l.467-3.383Z" transform="translate(1.648 4.295)" fill="#d5bfb2" stroke="#d5bfb2" stroke-linecap="round" stroke-linejoin="round" stroke-width="0.25"/><path d="M14.816,21.283,10.5,20l3.033-1.4Z" transform="translate(1.731 3.08)" fill="#233447" stroke="#233447" stroke-linecap="round" stroke-linejoin="round" stroke-width="0.25"/><path d="M19.6,21.283,20.883,18.6,23.916,20Z" transform="translate(3.246 3.08)" fill="#233447" stroke="#233447" stroke-linecap="round" stroke-linejoin="round" stroke-width="0.25"/><path d="M10.583,28.882l.7-6.182L6.5,22.817Z" transform="translate(1.065 3.762)" fill="#cc6228" stroke="#cc6228" stroke-linecap="round" stroke-linejoin="round" stroke-width="0.25"/><path d="M23.2,22.7l.7,6.182,4.083-6.066Z" transform="translate(3.846 3.762)" fill="#cc6228" stroke="#cc6228" stroke-linecap="round" stroke-linejoin="round" stroke-width="0.25"/><path d="M27.632,16.8,19,17.15l.817,4.433L21.1,18.9l3.033,1.4Z" transform="translate(3.146 2.78)" fill="#cc6228" stroke="#cc6228" stroke-linecap="round" stroke-linejoin="round" stroke-width="0.25"/><path d="M11,20.3l3.033-1.4,1.283,2.683.817-4.433L7.5,16.8Z" transform="translate(1.232 2.78)" fill="#cc6228" stroke="#cc6228" stroke-linecap="round" stroke-linejoin="round" stroke-width="0.25"/><path d="M7.5,16.8l3.616,7.116L11,20.416Z" transform="translate(1.232 2.78)" fill="#e27525" stroke="#e27525" stroke-linecap="round" stroke-linejoin="round" stroke-width="0.25"/><path d="M23.417,20.316l-.117,3.5L26.916,16.7Z" transform="translate(3.862 2.764)" fill="#e27525" stroke="#e27525" stroke-linecap="round" stroke-linejoin="round" stroke-width="0.25"/><path d="M15.017,17.1,14.2,21.533l1.05,5.249.233-6.882Z" transform="translate(2.347 2.83)" fill="#e27525" stroke="#e27525" stroke-linecap="round" stroke-linejoin="round" stroke-width="0.25"/><path d="M18.967,17.1,18.5,19.9l.233,6.882,1.05-5.249Z" transform="translate(3.063 2.83)" fill="#e27525" stroke="#e27525" stroke-linecap="round" stroke-linejoin="round" stroke-width="0.25"/><path d="M19.75,21.083,18.7,26.332l.7.467,4.549-3.5.117-3.5Z" transform="translate(3.096 3.28)" fill="#f5841f" stroke="#f5841f" stroke-linecap="round" stroke-linejoin="round" stroke-width="0.25"/><path d="M10.5,19.8l.117,3.5,4.549,3.5.7-.467-1.05-5.249Z" transform="translate(1.731 3.28)" fill="#f5841f" stroke="#f5841f" stroke-linecap="round" stroke-linejoin="round" stroke-width="0.25"/><path d="M21.315,30.333v-1.4l-.35-.35H15.133l-.35.35v1.4L10,28l1.75,1.4,3.383,2.333h5.949l3.5-2.333L26.214,28Z" transform="translate(1.648 4.645)" fill="#c0ac9d" stroke="#c0ac9d" stroke-linecap="round" stroke-linejoin="round" stroke-width="0.25"/><path d="M20.282,25.867l-.7-.467H15.266l-.7.467L14.1,29.249l.35-.35h5.832l.35.35Z" transform="translate(2.331 4.212)" fill="#161616" stroke="#161616" stroke-linecap="round" stroke-linejoin="round" stroke-width="0.25"/><path d="M34.8,12.231l1.283-6.3L34.1.1,19.4,11.065l5.716,4.783,8.049,2.333,1.75-2.1-.817-.467,1.283-1.166-.933-.7,1.283-.933Z" transform="translate(3.213)" fill="#763e1a" stroke="#763e1a" stroke-linecap="round" stroke-linejoin="round" stroke-width="0.25"/><path d="M.1,5.932l1.283,6.3-.817.583,1.283.933-.933.7L2.2,15.614l-.817.583,1.75,2.1,8.049-2.333L16.9,11.182,2.083.1Z" transform="translate(0 0)" fill="#763e1a" stroke="#763e1a" stroke-linecap="round" stroke-linejoin="round" stroke-width="0.25"/><path d="M32.515,15.933,24.466,13.6l2.45,3.616L23.3,24.332l4.783-.117H35.2Z" transform="translate(3.862 2.247)" fill="#f5841f" stroke="#f5841f" stroke-linecap="round" stroke-linejoin="round" stroke-width="0.25"/><path d="M11.132,13.6,3.083,15.933.4,24.215H7.516l4.783.117L8.682,17.216Z" transform="translate(0.05 2.247)" fill="#f5841f" stroke="#f5841f" stroke-linecap="round" stroke-linejoin="round" stroke-width="0.25"/><path d="M19.982,19.264l.467-8.865,2.333-6.3H12.4l2.333,6.3.467,8.865.233,2.8v6.882h4.316V22.064Z" transform="translate(2.048 0.666)" fill="#f5841f" stroke="#f5841f" stroke-linecap="round" stroke-linejoin="round" stroke-width="0.25"/></g></svg>