<svg xmlns="http://www.w3.org/2000/svg" width="227.284" height="37.675" viewBox="0 0 227.284 37.675"><path d="M444.507,69.8l-3.171,11.43h-3.3L433.6,64.5h3.63l2.632,12.112h.1L443.08,64.5h2.949l3.123,12.112h.1L451.894,64.5h3.63l-4.439,16.725h-3.3L444.618,69.8Zm15.837,9.163a2.488,2.488,0,0,0,2.7-2.3v-.9l-2.616.159c-1.268.1-1.982.666-1.982,1.538C458.426,78.388,459.2,78.959,460.344,78.959Zm-1.11,2.457c-2.362,0-4.153-1.522-4.153-3.773,0-2.267,1.744-3.567,4.835-3.757l3.123-.19v-.809c0-1.157-.809-1.823-2.093-1.823a2,2,0,0,0-2.219,1.538h-3.091c.127-2.41,2.172-4.074,5.469-4.074,3.186,0,5.263,1.649,5.263,4.153v8.545H463.1v-1.9h-.063A4.326,4.326,0,0,1,459.234,81.416Zm9.385-.206V64.5H472V81.226h-3.377Zm5.739,0V64.5h3.377V81.226h-3.377ZM485.6,71.033a2.682,2.682,0,0,0-2.663,2.679h5.279A2.594,2.594,0,0,0,485.6,71.033Zm2.647,6.389h3.107c-.365,2.426-2.6,4.074-5.66,4.074-3.821,0-6.119-2.441-6.119-6.42,0-3.963,2.315-6.531,5.992-6.531,3.615,0,5.9,2.441,5.9,6.214v1.03H482.9v.206a2.769,2.769,0,0,0,2.854,3A2.489,2.489,0,0,0,488.245,77.421Zm5.85-11.493h3.377V68.8h2.3V71.35h-2.3v5.945c0,.951.46,1.4,1.458,1.4a4.147,4.147,0,0,0,.824-.063v2.489a7.836,7.836,0,0,1-1.617.143c-2.917,0-4.058-.967-4.058-3.393V71.35h-1.744V68.8h1.744V65.928ZM509.314,81.5c-4.867,0-7.911-3.25-7.911-8.656,0-5.39,3.076-8.64,7.911-8.64,4.027,0,7.086,2.552,7.34,6.294h-3.408a3.871,3.871,0,0,0-3.932-3.393c-2.648,0-4.344,2.219-4.344,5.739,0,3.567,1.68,5.77,4.36,5.77a3.765,3.765,0,0,0,3.932-3.2h3.408C516.273,79.134,513.42,81.5,509.314,81.5Zm14.918-.016c-3.757,0-6.151-2.41-6.151-6.484,0-4.027,2.425-6.468,6.151-6.468s6.151,2.426,6.151,6.468C530.383,79.086,527.989,81.48,524.232,81.48Zm0-2.584c1.665,0,2.711-1.4,2.711-3.9,0-2.473-1.062-3.9-2.711-3.9S521.5,72.523,521.5,75C521.521,77.5,522.567,78.9,524.232,78.9Zm7.895,2.315V68.8h3.266v2.219h.063a3.928,3.928,0,0,1,3.884-2.441c2.758,0,4.312,1.744,4.312,4.645v8.006h-3.377V73.934c0-1.617-.761-2.552-2.283-2.552a2.454,2.454,0,0,0-2.473,2.727v7.118h-3.393Zm13.665,0V68.8h3.266v2.219h.063A3.929,3.929,0,0,1,553,68.575c2.758,0,4.312,1.744,4.312,4.645v8.006H553.94V73.934c0-1.617-.761-2.552-2.283-2.552a2.454,2.454,0,0,0-2.473,2.727v7.118h-3.393Zm19.245-10.178a2.682,2.682,0,0,0-2.663,2.679h5.279A2.594,2.594,0,0,0,565.037,71.033Zm2.648,6.389h3.107c-.365,2.426-2.6,4.074-5.66,4.074-3.82,0-6.119-2.441-6.119-6.42,0-3.963,2.315-6.531,5.992-6.531,3.614,0,5.9,2.441,5.9,6.214v1.03h-8.561v.206a2.769,2.769,0,0,0,2.854,3A2.489,2.489,0,0,0,567.685,77.421Zm16.233-4.011h-3.139a2.4,2.4,0,0,0-2.457-2.235c-1.665,0-2.711,1.411-2.711,3.8,0,2.441,1.046,3.836,2.727,3.836a2.326,2.326,0,0,0,2.441-2.172h3.155c-.174,2.933-2.362,4.819-5.628,4.819-3.741,0-6.119-2.426-6.119-6.484,0-3.979,2.378-6.468,6.088-6.468C581.635,68.528,583.775,70.6,583.918,73.411Zm2.552-7.483h3.377V68.8h2.3V71.35h-2.3v5.945c0,.951.46,1.4,1.458,1.4a4.147,4.147,0,0,0,.824-.063v2.489a7.837,7.837,0,0,1-1.617.143c-2.917,0-4.058-.967-4.058-3.393V71.35h-1.744V68.8h1.744V65.928Z" transform="translate(-364.861 -54.018)" fill="#3999fb" fillRule="evenodd"/><path d="M12.587,7.335a26.044,26.044,0,0,1,36.287,0l1.2,1.173a1.226,1.226,0,0,1,0,1.776l-4.122,4.043a.661.661,0,0,1-.9,0L43.39,12.693a18.167,18.167,0,0,0-25.317,0L16.3,14.437a.661.661,0,0,1-.9,0L11.256,10.41a1.226,1.226,0,0,1,0-1.776ZM57.4,15.689l3.678,3.6a1.226,1.226,0,0,1,0,1.776L44.515,37.281a1.292,1.292,0,0,1-1.807,0h0L30.961,25.772a.325.325,0,0,0-.46,0h0L18.754,37.281a1.292,1.292,0,0,1-1.807,0h0L.38,21.063a1.226,1.226,0,0,1,0-1.776l3.678-3.6a1.292,1.292,0,0,1,1.807,0L17.613,27.2a.325.325,0,0,0,.46,0h0L29.819,15.689a1.292,1.292,0,0,1,1.807,0h0L43.374,27.2a.325.325,0,0,0,.46,0L55.581,15.689A1.311,1.311,0,0,1,57.4,15.689Z" transform="translate(0 0.025)" fill="#3999fb"/></svg>