<svg xmlns="http://www.w3.org/2000/svg" xmlns:xlink="http://www.w3.org/1999/xlink" width="1282.48" height="762.34" viewBox="0 0 1282.48 762.34"><defs><clipPath id="a"><circle cx="74.5" cy="74.5" r="74.5" transform="translate(1262 2952.219)" fill="#bf1414"/></clipPath><clipPath id="b"><rect width="160.198" height="162.12" fill="none"/></clipPath></defs><g transform="translate(140.48 -2329.665)"><g transform="translate(2395.608 1586.891) rotate(101)"><path d="M5181.55,2215.007s-33.638-150.687,39.686-203.691,520.268,108.476,517.854-277.261-183.506-589.624-183.506-589.624" transform="translate(-3980 25.996)" fill="none" stroke="#b4b4b4" stroke-width="3" stroke-dasharray="12 12"/><path d="M13.114,2.71a4,4,0,0,1,5.576,0l6.049,5.88a4,4,0,0,1-2.788,6.868H9.853A4,4,0,0,1,7.065,8.591Z" transform="translate(1546.231 1168.32) rotate(-50)" fill="#0ba4eb"/></g><g transform="translate(712.294 1086.531)"><path d="M173.705.015C153.369.907-10.606,33.9.543,171.834c3.288,40.692,40.325,49.531,40.325,49.531l17.2,4.688L71.454,229.7s27.714,3.07,37.913,0,59.81,17.606,59.81,17.606,43.1,12.166,67.642-32.559c12.885-23.481,15.235-100.559,0-148.322C222.785,7.526,183.367-.408,173.705.015Z" transform="matrix(0.966, 0.259, -0.259, 0.966, 186.81, 1657.468)" fill="#eacf49" opacity="0.1"/><g transform="translate(-981.294 -1205.086)" clip-path="url(#a)"><g transform="translate(1257.021 2956.126)" clip-path="url(#b)"><g transform="translate(-482 -1893)"><circle cx="4.5" cy="4.5" r="4.5" transform="translate(482 1893)" fill="#0ba4eb"/></g><g transform="translate(-467 -1893)"><circle cx="4.5" cy="4.5" r="4.5" transform="translate(482 1893)" fill="#0ba4eb"/></g><g transform="translate(-452 -1893)"><circle cx="4.5" cy="4.5" r="4.5" transform="translate(482 1893)" fill="#0ba4eb"/></g><g transform="translate(-437 -1893)"><circle cx="4.5" cy="4.5" r="4.5" transform="translate(482 1893)" fill="#0ba4eb"/></g><g transform="translate(-422 -1893)"><circle cx="4.5" cy="4.5" r="4.5" transform="translate(482 1893)" fill="#0ba4eb"/></g><g transform="translate(-407 -1893)"><circle cx="4.5" cy="4.5" r="4.5" transform="translate(482 1893)" fill="#0ba4eb"/></g><g transform="translate(-392 -1893)"><circle cx="4.5" cy="4.5" r="4.5" transform="translate(482 1893)" fill="#0ba4eb"/></g><g transform="translate(-377 -1893)"><circle cx="4.5" cy="4.5" r="4.5" transform="translate(482 1893)" fill="#0ba4eb"/></g><g transform="translate(-362 -1893)"><circle cx="4.5" cy="4.5" r="4.5" transform="translate(482 1893)" fill="#0ba4eb"/></g><g transform="translate(-347 -1893)"><circle cx="4.5" cy="4.5" r="4.5" transform="translate(482 1893)" fill="#0ba4eb"/></g><g transform="translate(-332 -1893)"><circle cx="4.5" cy="4.5" r="4.5" transform="translate(482 1893)" fill="#0ba4eb"/></g><g transform="translate(-482 -1878)"><circle cx="4.5" cy="4.5" r="4.5" transform="translate(482 1893)" fill="#0ba4eb"/></g><g transform="translate(-467 -1878)"><circle cx="4.5" cy="4.5" r="4.5" transform="translate(482 1893)" fill="#0ba4eb"/></g><g transform="translate(-452 -1878)"><circle cx="4.5" cy="4.5" r="4.5" transform="translate(482 1893)" fill="#0ba4eb"/></g><g transform="translate(-437 -1878)"><circle cx="4.5" cy="4.5" r="4.5" transform="translate(482 1893)" fill="#0ba4eb"/></g><g transform="translate(-422 -1878)"><circle cx="4.5" cy="4.5" r="4.5" transform="translate(482 1893)" fill="#0ba4eb"/></g><g transform="translate(-407 -1878)"><circle cx="4.5" cy="4.5" r="4.5" transform="translate(482 1893)" fill="#0ba4eb"/></g><g transform="translate(-392 -1878)"><circle cx="4.5" cy="4.5" r="4.5" transform="translate(482 1893)" fill="#0ba4eb"/></g><g transform="translate(-377 -1878)"><circle cx="4.5" cy="4.5" r="4.5" transform="translate(482 1893)" fill="#0ba4eb"/></g><g transform="translate(-362 -1878)"><circle cx="4.5" cy="4.5" r="4.5" transform="translate(482 1893)" fill="#0ba4eb"/></g><g transform="translate(-347 -1878)"><circle cx="4.5" cy="4.5" r="4.5" transform="translate(482 1893)" fill="#0ba4eb"/></g><g transform="translate(-332 -1878)"><circle cx="4.5" cy="4.5" r="4.5" transform="translate(482 1893)" fill="#0ba4eb"/></g><g transform="translate(-482 -1863)"><circle cx="4.5" cy="4.5" r="4.5" transform="translate(482 1893)" fill="#0ba4eb"/></g><g transform="translate(-467 -1863)"><circle cx="4.5" cy="4.5" r="4.5" transform="translate(482 1893)" fill="#0ba4eb"/></g><g transform="translate(-452 -1863)"><circle cx="4.5" cy="4.5" r="4.5" transform="translate(482 1893)" fill="#0ba4eb"/></g><g transform="translate(-437 -1863)"><circle cx="4.5" cy="4.5" r="4.5" transform="translate(482 1893)" fill="#0ba4eb"/></g><g transform="translate(-422 -1863)"><circle cx="4.5" cy="4.5" r="4.5" transform="translate(482 1893)" fill="#0ba4eb"/></g><g transform="translate(-407 -1863)"><circle cx="4.5" cy="4.5" r="4.5" transform="translate(482 1893)" fill="#0ba4eb"/></g><g transform="translate(-392 -1863)"><circle cx="4.5" cy="4.5" r="4.5" transform="translate(482 1893)" fill="#0ba4eb"/></g><g transform="translate(-377 -1863)"><circle cx="4.5" cy="4.5" r="4.5" transform="translate(482 1893)" fill="#0ba4eb"/></g><g transform="translate(-362 -1863)"><circle cx="4.5" cy="4.5" r="4.5" transform="translate(482 1893)" fill="#0ba4eb"/></g><g transform="translate(-347 -1863)"><circle cx="4.5" cy="4.5" r="4.5" transform="translate(482 1893)" fill="#0ba4eb"/></g><g transform="translate(-332 -1863)"><circle cx="4.5" cy="4.5" r="4.5" transform="translate(482 1893)" fill="#0ba4eb"/></g><g transform="translate(-482 -1848)"><circle cx="4.5" cy="4.5" r="4.5" transform="translate(482 1893)" fill="#0ba4eb"/></g><g transform="translate(-467 -1848)"><circle cx="4.5" cy="4.5" r="4.5" transform="translate(482 1893)" fill="#0ba4eb"/></g><g transform="translate(-452 -1848)"><circle cx="4.5" cy="4.5" r="4.5" transform="translate(482 1893)" fill="#0ba4eb"/></g><g transform="translate(-437 -1848)"><circle cx="4.5" cy="4.5" r="4.5" transform="translate(482 1893)" fill="#0ba4eb"/></g><g transform="translate(-422 -1848)"><circle cx="4.5" cy="4.5" r="4.5" transform="translate(482 1893)" fill="#0ba4eb"/></g><g transform="translate(-407 -1848)"><circle cx="4.5" cy="4.5" r="4.5" transform="translate(482 1893)" fill="#0ba4eb"/></g><g transform="translate(-392 -1848)"><circle cx="4.5" cy="4.5" r="4.5" transform="translate(482 1893)" fill="#0ba4eb"/></g><g transform="translate(-377 -1848)"><circle cx="4.5" cy="4.5" r="4.5" transform="translate(482 1893)" fill="#0ba4eb"/></g><g transform="translate(-362 -1848)"><circle cx="4.5" cy="4.5" r="4.5" transform="translate(482 1893)" fill="#0ba4eb"/></g><g transform="translate(-347 -1848)"><circle cx="4.5" cy="4.5" r="4.5" transform="translate(482 1893)" fill="#0ba4eb"/></g><g transform="translate(-332 -1848)"><circle cx="4.5" cy="4.5" r="4.5" transform="translate(482 1893)" fill="#0ba4eb"/></g><g transform="translate(-482 -1833)"><circle cx="4.5" cy="4.5" r="4.5" transform="translate(482 1893)" fill="#0ba4eb"/></g><g transform="translate(-467 -1833)"><circle cx="4.5" cy="4.5" r="4.5" transform="translate(482 1893)" fill="#0ba4eb"/></g><g transform="translate(-452 -1833)"><circle cx="4.5" cy="4.5" r="4.5" transform="translate(482 1893)" fill="#0ba4eb"/></g><g transform="translate(-437 -1833)"><circle cx="4.5" cy="4.5" r="4.5" transform="translate(482 1893)" fill="#0ba4eb"/></g><g transform="translate(-422 -1833)"><circle cx="4.5" cy="4.5" r="4.5" transform="translate(482 1893)" fill="#0ba4eb"/></g><g transform="translate(-407 -1833)"><circle cx="4.5" cy="4.5" r="4.5" transform="translate(482 1893)" fill="#0ba4eb"/></g><g transform="translate(-392 -1833)"><circle cx="4.5" cy="4.5" r="4.5" transform="translate(482 1893)" fill="#0ba4eb"/></g><g transform="translate(-377 -1833)"><circle cx="4.5" cy="4.5" r="4.5" transform="translate(482 1893)" fill="#0ba4eb"/></g><g transform="translate(-362 -1833)"><circle cx="4.5" cy="4.5" r="4.5" transform="translate(482 1893)" fill="#0ba4eb"/></g><g transform="translate(-347 -1833)"><circle cx="4.5" cy="4.5" r="4.5" transform="translate(482 1893)" fill="#0ba4eb"/></g><g transform="translate(-332 -1833)"><circle cx="4.5" cy="4.5" r="4.5" transform="translate(482 1893)" fill="#0ba4eb"/></g><g transform="translate(-482 -1818)"><circle cx="4.5" cy="4.5" r="4.5" transform="translate(482 1893)" fill="#0ba4eb"/></g><g transform="translate(-467 -1818)"><circle cx="4.5" cy="4.5" r="4.5" transform="translate(482 1893)" fill="#0ba4eb"/></g><g transform="translate(-452 -1818)"><circle cx="4.5" cy="4.5" r="4.5" transform="translate(482 1893)" fill="#0ba4eb"/></g><g transform="translate(-437 -1818)"><circle cx="4.5" cy="4.5" r="4.5" transform="translate(482 1893)" fill="#0ba4eb"/></g><g transform="translate(-422 -1818)"><circle cx="4.5" cy="4.5" r="4.5" transform="translate(482 1893)" fill="#0ba4eb"/></g><g transform="translate(-407 -1818)"><circle cx="4.5" cy="4.5" r="4.5" transform="translate(482 1893)" fill="#0ba4eb"/></g><g transform="translate(-392 -1818)"><circle cx="4.5" cy="4.5" r="4.5" transform="translate(482 1893)" fill="#0ba4eb"/></g><g transform="translate(-377 -1818)"><circle cx="4.5" cy="4.5" r="4.5" transform="translate(482 1893)" fill="#0ba4eb"/></g><g transform="translate(-362 -1818)"><circle cx="4.5" cy="4.5" r="4.5" transform="translate(482 1893)" fill="#0ba4eb"/></g><g transform="translate(-347 -1818)"><circle cx="4.5" cy="4.5" r="4.5" transform="translate(482 1893)" fill="#0ba4eb"/></g><g transform="translate(-332 -1818)"><circle cx="4.5" cy="4.5" r="4.5" transform="translate(482 1893)" fill="#0ba4eb"/></g><g transform="translate(-482 -1803)"><circle cx="4.5" cy="4.5" r="4.5" transform="translate(482 1893)" fill="#0ba4eb"/></g><g transform="translate(-467 -1803)"><circle cx="4.5" cy="4.5" r="4.5" transform="translate(482 1893)" fill="#0ba4eb"/></g><g transform="translate(-452 -1803)"><circle cx="4.5" cy="4.5" r="4.5" transform="translate(482 1893)" fill="#0ba4eb"/></g><g transform="translate(-437 -1803)"><circle cx="4.5" cy="4.5" r="4.5" transform="translate(482 1893)" fill="#0ba4eb"/></g><g transform="translate(-422 -1803)"><circle cx="4.5" cy="4.5" r="4.5" transform="translate(482 1893)" fill="#0ba4eb"/></g><g transform="translate(-407 -1803)"><circle cx="4.5" cy="4.5" r="4.5" transform="translate(482 1893)" fill="#0ba4eb"/></g><g transform="translate(-392 -1803)"><circle cx="4.5" cy="4.5" r="4.5" transform="translate(482 1893)" fill="#0ba4eb"/></g><g transform="translate(-377 -1803)"><circle cx="4.5" cy="4.5" r="4.5" transform="translate(482 1893)" fill="#0ba4eb"/></g><g transform="translate(-362 -1803)"><circle cx="4.5" cy="4.5" r="4.5" transform="translate(482 1893)" fill="#0ba4eb"/></g><g transform="translate(-347 -1803)"><circle cx="4.5" cy="4.5" r="4.5" transform="translate(482 1893)" fill="#0ba4eb"/></g><g transform="translate(-332 -1803)"><circle cx="4.5" cy="4.5" r="4.5" transform="translate(482 1893)" fill="#0ba4eb"/></g><g transform="translate(-482 -1788)"><circle cx="4.5" cy="4.5" r="4.5" transform="translate(482 1893)" fill="#0ba4eb"/></g><g transform="translate(-467 -1788)"><circle cx="4.5" cy="4.5" r="4.5" transform="translate(482 1893)" fill="#0ba4eb"/></g><g transform="translate(-452 -1788)"><circle cx="4.5" cy="4.5" r="4.5" transform="translate(482 1893)" fill="#0ba4eb"/></g><g transform="translate(-437 -1788)"><circle cx="4.5" cy="4.5" r="4.5" transform="translate(482 1893)" fill="#0ba4eb"/></g><g transform="translate(-422 -1788)"><circle cx="4.5" cy="4.5" r="4.5" transform="translate(482 1893)" fill="#0ba4eb"/></g><g transform="translate(-407 -1788)"><circle cx="4.5" cy="4.5" r="4.5" transform="translate(482 1893)" fill="#0ba4eb"/></g><g transform="translate(-392 -1788)"><circle cx="4.5" cy="4.5" r="4.5" transform="translate(482 1893)" fill="#0ba4eb"/></g><g transform="translate(-377 -1788)"><circle cx="4.5" cy="4.5" r="4.5" transform="translate(482 1893)" fill="#0ba4eb"/></g><g transform="translate(-362 -1788)"><circle cx="4.5" cy="4.5" r="4.5" transform="translate(482 1893)" fill="#0ba4eb"/></g><g transform="translate(-347 -1788)"><circle cx="4.5" cy="4.5" r="4.5" transform="translate(482 1893)" fill="#0ba4eb"/></g><g transform="translate(-332 -1788)"><circle cx="4.5" cy="4.5" r="4.5" transform="translate(482 1893)" fill="#0ba4eb"/></g><g transform="translate(-482 -1773)"><circle cx="4.5" cy="4.5" r="4.5" transform="translate(482 1893)" fill="#0ba4eb"/></g><g transform="translate(-467 -1773)"><circle cx="4.5" cy="4.5" r="4.5" transform="translate(482 1893)" fill="#0ba4eb"/></g><g transform="translate(-452 -1773)"><circle cx="4.5" cy="4.5" r="4.5" transform="translate(482 1893)" fill="#0ba4eb"/></g><g transform="translate(-437 -1773)"><circle cx="4.5" cy="4.5" r="4.5" transform="translate(482 1893)" fill="#0ba4eb"/></g><g transform="translate(-422 -1773)"><circle cx="4.5" cy="4.5" r="4.5" transform="translate(482 1893)" fill="#0ba4eb"/></g><g transform="translate(-407 -1773)"><circle cx="4.5" cy="4.5" r="4.5" transform="translate(482 1893)" fill="#0ba4eb"/></g><g transform="translate(-392 -1773)"><circle cx="4.5" cy="4.5" r="4.5" transform="translate(482 1893)" fill="#0ba4eb"/></g><g transform="translate(-377 -1773)"><circle cx="4.5" cy="4.5" r="4.5" transform="translate(482 1893)" fill="#0ba4eb"/></g><g transform="translate(-362 -1773)"><circle cx="4.5" cy="4.5" r="4.5" transform="translate(482 1893)" fill="#0ba4eb"/></g><g transform="translate(-347 -1773)"><circle cx="4.5" cy="4.5" r="4.5" transform="translate(482 1893)" fill="#0ba4eb"/></g><g transform="translate(-332 -1773)"><circle cx="4.5" cy="4.5" r="4.5" transform="translate(482 1893)" fill="#0ba4eb"/></g><g transform="translate(-482 -1758)"><circle cx="4.5" cy="4.5" r="4.5" transform="translate(482 1893)" fill="#0ba4eb"/></g><g transform="translate(-467 -1758)"><circle cx="4.5" cy="4.5" r="4.5" transform="translate(482 1893)" fill="#0ba4eb"/></g><g transform="translate(-452 -1758)"><circle cx="4.5" cy="4.5" r="4.5" transform="translate(482 1893)" fill="#0ba4eb"/></g><g transform="translate(-437 -1758)"><circle cx="4.5" cy="4.5" r="4.5" transform="translate(482 1893)" fill="#0ba4eb"/></g><g transform="translate(-422 -1758)"><circle cx="4.5" cy="4.5" r="4.5" transform="translate(482 1893)" fill="#0ba4eb"/></g><g transform="translate(-407 -1758)"><circle cx="4.5" cy="4.5" r="4.5" transform="translate(482 1893)" fill="#0ba4eb"/></g><g transform="translate(-392 -1758)"><circle cx="4.5" cy="4.5" r="4.5" transform="translate(482 1893)" fill="#0ba4eb"/></g><g transform="translate(-377 -1758)"><circle cx="4.5" cy="4.5" r="4.5" transform="translate(482 1893)" fill="#0ba4eb"/></g><g transform="translate(-362 -1758)"><circle cx="4.5" cy="4.5" r="4.5" transform="translate(482 1893)" fill="#0ba4eb"/></g><g transform="translate(-347 -1758)"><circle cx="4.5" cy="4.5" r="4.5" transform="translate(482 1893)" fill="#0ba4eb"/></g><g transform="translate(-332 -1758)"><circle cx="4.5" cy="4.5" r="4.5" transform="translate(482 1893)" fill="#0ba4eb"/></g><g transform="translate(-482 -1743)"><circle cx="4.5" cy="4.5" r="4.5" transform="translate(482 1893)" fill="#0ba4eb"/></g><g transform="translate(-467 -1743)"><circle cx="4.5" cy="4.5" r="4.5" transform="translate(482 1893)" fill="#0ba4eb"/></g><g transform="translate(-452 -1743)"><circle cx="4.5" cy="4.5" r="4.5" transform="translate(482 1893)" fill="#0ba4eb"/></g><g transform="translate(-437 -1743)"><circle cx="4.5" cy="4.5" r="4.5" transform="translate(482 1893)" fill="#0ba4eb"/></g><g transform="translate(-422 -1743)"><circle cx="4.5" cy="4.5" r="4.5" transform="translate(482 1893)" fill="#0ba4eb"/></g><g transform="translate(-407 -1743)"><circle cx="4.5" cy="4.5" r="4.5" transform="translate(482 1893)" fill="#0ba4eb"/></g><g transform="translate(-392 -1743)"><circle cx="4.5" cy="4.5" r="4.5" transform="translate(482 1893)" fill="#0ba4eb"/></g><g transform="translate(-377 -1743)"><circle cx="4.5" cy="4.5" r="4.5" transform="translate(482 1893)" fill="#0ba4eb"/></g><g transform="translate(-362 -1743)"><circle cx="4.5" cy="4.5" r="4.5" transform="translate(482 1893)" fill="#0ba4eb"/></g><g transform="translate(-347 -1743)"><circle cx="4.5" cy="4.5" r="4.5" transform="translate(482 1893)" fill="#0ba4eb"/></g><g transform="translate(-332 -1743)"><circle cx="4.5" cy="4.5" r="4.5" transform="translate(482 1893)" fill="#0ba4eb"/></g></g></g></g></g></svg>