<svg xmlns="http://www.w3.org/2000/svg" width="704.349" height="487.095" viewBox="0 0 704.349 487.095"><g transform="translate(0)"><path d="M199.1,398.941c-13.04,10.669,8.3,104.319,8.3,104.319s4.742,142.846,14.818,149.366,32.6-.593,41.49-1.778,1.185-89.5-11.854-122.1-2.964-80.017-2.964-80.017l70.534,13.633s-42.676,36.156-40.9,43.861,47.418,33.785,55.716,34.97,24.3-47.418,38.527-80.61-97.206-54.53-97.206-54.53L260.149,377.01S212.139,388.272,199.1,398.941Z" transform="translate(-135.441 -186.205)" fill="#2f2e41"/><path d="M248.976,753.282s-4.3,15.054,0,15.054,12.186,4.3,24.373,2.867,8.6-16.488,0-18.638S266.9,733.21,266.9,733.21c-2.867-5.735-16.488,1.434-16.488,1.434Z" transform="translate(-149.918 -284.401)" fill="#2f2e41"/><path d="M332.5,588.778s-7.379,13.808-3.175,14.715,11.005,6.774,23.22,7.943,11.886-14.3,3.931-18.219-2.225-20.28-2.225-20.28c-1.594-6.211-16.419-2.076-16.419-2.076Z" transform="translate(-172.379 -239.606)" fill="#2f2e41"/><path d="M210.2,229.572c1.185,2.371-4.149,32.007-4.149,32.007l4.742,8.3s27.265-10.669,23.116-12.447-3.556-23.709-3.556-23.709S209.015,227.2,210.2,229.572Z" transform="translate(-138.54 -145.16)" fill="#ffb9b9"/><circle cx="36.342" cy="36.342" r="36.342" transform="translate(45.58 20.864)" fill="#2f2e41"/><circle cx="15.038" cy="15.038" r="15.038" transform="translate(64.378 8.146)" fill="#2f2e41"/><path d="M231.631,142.947a15.208,15.208,0,0,0,1.566.081,15.038,15.038,0,0,0,0-30.076,15.208,15.208,0,0,0-1.566.081,15.039,15.039,0,0,1,0,29.914Z" transform="translate(-145.636 -112.953)" fill="#2f2e41"/><circle cx="24.894" cy="24.894" r="24.894" transform="translate(58.027 50.035)" fill="#ffb9b9"/><path d="M169.787,266.765c-7.705,1.778-20.745,20.745-20.745,20.745l20.745,20.745s14.818,55.716,16.6,58.087c11.649,15.532,64.014-18.967,64.014-18.967s-2.075-16.893-.889-25.191c1.14-7.981-4.445-24.005-4.445-24.005s19.56-8.3,15.411-16.6-29.636-27.265-40.305-20.745-32.007,0-32.007,0A167.407,167.407,0,0,1,169.787,266.765Z" transform="translate(-122.725 -153.606)" fill="#e6e6e6"/><path d="M387.331,433.475s33.785,29.043,42.083,23.116-32.007-26.672-32.007-26.672Z" transform="translate(-188.829 -200.882)" fill="#ffb9b9"/><path d="M176.78,414.734c4.742,5.335,27.265-8.3,24.378-14.352s-20.821,6.054-20.821,6.054S172.038,409.4,176.78,414.734Z" transform="translate(-130.014 -192.218)" fill="#ffb9b9"/><path d="M159.684,304.06,134.79,350.292S163.24,374,166.8,374.593s-7.113,16-7.113,16-32.007-22.523-44.454-33.785,23.709-61.05,23.709-61.05l10.669-6.52Z" transform="translate(-112.622 -161.857)" fill="#e6e6e6"/><path d="M277.825,301.371l29.043,45.047s44.454,49.789,50.381,52.159,13.04-8.891,13.04-8.891L316.944,325.08l-20.152-36.156-7.705-2.964Z" transform="translate(-158.451 -160.947)" fill="#e6e6e6"/><ellipse cx="25.063" cy="15.038" rx="25.063" ry="15.038" transform="translate(56.859 30.313)" fill="#2f2e41"/><path d="M322.11,624.742a3.1,3.1,0,0,0-3.1,3.1V733.515a3.1,3.1,0,0,0,3.1,3.1H682.443a3.1,3.1,0,0,0,3.1-3.1V627.84a3.1,3.1,0,0,0-3.1-3.1Z" transform="translate(-169.877 -254.928)" fill="#e6e6e6"/><path d="M329.757,731.83h351V635.487h-351Z" transform="translate(-172.857 -257.908)" fill="#fff"/><path d="M752.226,741.157a5.132,5.132,0,0,0,0,10.265h20.529a5.132,5.132,0,0,0,0-10.265Z" transform="translate(-288.63 -287.222)" fill="#f0ce14"/><rect width="236.985" height="1.35" transform="translate(252.272 443.98)" fill="#e6e6e6"/><circle cx="29.893" cy="29.893" r="29.893" transform="translate(172.842 395.857)" fill="#f0ce14"/><path d="M349.353,584.921,348.6,583.8l24.626-16.418,16.887,8.106,24.29-15.518,48.318,20.611,38.478-18.9,37.364,15.148,46.949-41.583.9,1.011-47.575,42.139-37.58-15.236-38.492,18.908-48.232-20.574-24.322,15.54-16.872-8.1Z" transform="translate(-96.706 -148.481)" fill="#3f3d56"/><path d="M466.133,742.134a4.389,4.389,0,1,0,0,8.777h45.912a4.389,4.389,0,0,0,0-8.777Z" transform="translate(-209.472 -287.493)" fill="#e6e6e6"/><path d="M398.406,683.645h4.671l-9.719,9.618a9.074,9.074,0,0,1-12.74,0l-9.718-9.618h4.671l7.383,7.307a5.747,5.747,0,0,0,8.069,0Zm-22.895,26.747h-4.671l9.779-9.678a9.074,9.074,0,0,1,12.74,0l9.779,9.678h-4.671l-7.444-7.366a5.747,5.747,0,0,0-8.069,0Z" transform="translate(-184.255 -271.268)" fill="#fff"/><path d="M387.045,156.307a3.1,3.1,0,0,0-3.1,3.1V265.08a3.1,3.1,0,0,0,3.1,3.1H747.379a3.1,3.1,0,0,0,3.1-3.1V159.405a3.1,3.1,0,0,0-3.1-3.1Z" transform="translate(-187.89 -124.979)" fill="#e6e6e6"/><path d="M394.692,263.4h351V167.052h-351Z" transform="translate(-190.871 -127.96)" fill="#fff"/><path d="M817.161,272.722a5.132,5.132,0,0,0,0,10.265H837.69a5.132,5.132,0,1,0,0-10.265Z" transform="translate(-306.644 -157.274)" fill="#f0ce14"/><rect width="236.985" height="1.35" transform="translate(299.194 105.493)" fill="#e6e6e6"/><circle cx="29.893" cy="29.893" r="29.893" transform="translate(219.764 57.37)" fill="#f0ce14"/><path d="M414.288,116.485l-.749-1.124,24.626-16.417,16.887,8.106,24.29-15.518.328.139,47.99,20.472,38.478-18.9L603.5,108.389l46.949-41.584.9,1.011-47.575,42.139-37.58-15.235L527.7,113.627,479.468,93.053l-24.322,15.539-16.872-8.1Z" transform="translate(-114.719 -18.532)" fill="#3f3d56"/><path d="M531.068,273.7a4.389,4.389,0,0,0,0,8.777H576.98a4.389,4.389,0,0,0,0-8.777Z" transform="translate(-227.485 -157.545)" fill="#e6e6e6"/><path d="M464.471,223.394c.559-3.741-2.289-5.752-6.184-7.093l1.263-5.067-3.085-.769-1.23,4.934c-.81-.2-1.643-.393-2.47-.582L454,209.85l-3.083-.769-1.264,5.066c-.671-.153-1.33-.3-1.97-.463l0-.016-4.254-1.062-.821,3.294s2.289.524,2.24.557a1.641,1.641,0,0,1,1.437,1.794l-1.439,5.773a2.556,2.556,0,0,1,.321.1l-.325-.081-2.018,8.087a1.123,1.123,0,0,1-1.414.733c.031.045-2.242-.56-2.242-.56l-1.531,3.532,4.015,1c.747.187,1.479.383,2.2.568l-1.277,5.126,3.081.769,1.265-5.071c.841.228,1.658.439,2.457.638l-1.26,5.047,3.085.769,1.277-5.116c5.26,1,9.216.594,10.879-4.162,1.342-3.83-.066-6.04-2.833-7.482a4.923,4.923,0,0,0,3.938-4.531Zm-7.048,9.883c-.954,3.83-7.4,1.761-9.494,1.24l1.694-6.79c2.091.522,8.795,1.555,7.8,5.55Zm.953-9.938c-.87,3.484-6.238,1.714-7.98,1.28l1.536-6.158c1.742.434,7.351,1.244,6.444,4.878Z" transform="translate(-202.786 -139.62)" fill="#fff"/><path d="M583.232,390.524a3.1,3.1,0,0,0-3.1,3.1V499.3a3.1,3.1,0,0,0,3.1,3.1H943.565a3.1,3.1,0,0,0,3.1-3.1V393.623a3.1,3.1,0,0,0-3.1-3.1Z" transform="translate(-242.314 -189.953)" fill="#e6e6e6"/><path d="M590.878,497.613h351V401.27h-351Z" transform="translate(-245.295 -192.934)" fill="#fff"/><path d="M1013.348,506.94a5.132,5.132,0,0,0,0,10.265h20.529a5.132,5.132,0,1,0,0-10.265h-20.529Z" transform="translate(-361.068 -222.248)" fill="#f0ce14"/><rect width="236.985" height="1.35" transform="translate(440.957 274.736)" fill="#e6e6e6"/><circle cx="29.893" cy="29.893" r="29.893" transform="translate(361.526 226.614)" fill="#f0ce14"/><path d="M610.474,350.7l-.749-1.124,24.626-16.417,16.888,8.106,24.289-15.518.329.139,47.989,20.472,38.479-18.9,37.364,15.147,46.949-41.583.9,1.012-47.575,42.138-37.58-15.235-38.492,18.908-48.231-20.574L651.332,342.81l-16.871-8.1Z" transform="translate(-169.143 -83.507)" fill="#3f3d56"/><path d="M727.255,507.917a4.389,4.389,0,0,0,0,8.777h45.912a4.389,4.389,0,0,0,0-8.777Z" transform="translate(-281.909 -222.519)" fill="#e6e6e6"/><path d="M537.041,375.7l12.1-17.042-12.1,7.145h0l-12.094-7.145L537.04,375.7h0Z" transform="translate(-145.625 -99.496)" fill="#fff"/><path d="M537.04,354.933h0l12.094-7.149-12.094-20.067h0l-12.093,20.067Z" transform="translate(-145.625 -90.912)" fill="#fff"/></g></svg>