<svg xmlns="http://www.w3.org/2000/svg" xmlns:xlink="http://www.w3.org/1999/xlink" width="243" height="214" viewBox="0 0 243 214"><defs><linearGradient id="a" x1="0.086" y1="0.11" x2="0.878" y2="0.887" gradientUnits="objectBoundingBox"><stop offset="0" stop-color="#119ce5"/><stop offset="1" stop-color="#eec52b"/></linearGradient></defs><g transform="translate(-1304 -342)"><g transform="translate(622 6)"><path d="M3980,0V124.215h124.215V0Z" transform="translate(-3281 358.5)" stroke="#ededed" stroke-width="4" fill="url(#a)"/><g transform="translate(-882.555 40)"><g transform="translate(1564.555 296)"><g transform="translate(0 0)" fill="none" stroke="#ededed" stroke-width="1"><rect width="161" height="214" rx="12" stroke="none"/><rect x="0.5" y="0.5" width="160" height="213" rx="11.5" fill="none"/></g></g></g><g transform="translate(699 504)" fill="#efefef" stroke="#ededed" stroke-width="1"><circle cx="12" cy="12" r="12" stroke="none"/><circle cx="12" cy="12" r="11.5" fill="none"/></g><g transform="translate(7 -2)"><rect width="89" height="5" transform="translate(727 511)" fill="#efefef"/><rect width="89" height="5" transform="translate(727 521)" fill="#efefef"/></g></g><g transform="translate(1400 401)"><rect width="147" height="61" rx="30.5" transform="translate(0 0)" fill="#fdf8dc"/></g><g transform="translate(762 -495.363)"><g transform="translate(667 916.363)"><g transform="translate(0 0)"><g transform="translate(0 0)"><path d="M1.289,14.327V3.786H5.246a4.2,4.2,0,0,1,2.04.452A3.037,3.037,0,0,1,8.536,5.48a3.738,3.738,0,0,1,.424,1.8,3.715,3.715,0,0,1-.428,1.8,3.032,3.032,0,0,1-1.262,1.238,4.285,4.285,0,0,1-2.054.449H2.6V9.2H4.962a2.413,2.413,0,0,0,1.163-.247,1.569,1.569,0,0,0,.67-.68,2.178,2.178,0,0,0,.218-.992,2.154,2.154,0,0,0-.218-.989,1.534,1.534,0,0,0-.673-.669,2.5,2.5,0,0,0-1.173-.24H3.2v8.948ZM12.4,3.786V14.327H10.533V3.786Zm4.188,10.7a3.245,3.245,0,0,1-1.353-.271,2.185,2.185,0,0,1-.947-.8,2.332,2.332,0,0,1-.348-1.308A2.218,2.218,0,0,1,14.188,11a1.925,1.925,0,0,1,.676-.7,3.409,3.409,0,0,1,.964-.4,8.172,8.172,0,0,1,1.112-.2q.7-.076,1.13-.135a1.631,1.631,0,0,0,.629-.185.432.432,0,0,0,.2-.392V8.962a1.168,1.168,0,0,0-.343-.9,1.41,1.41,0,0,0-.995-.319,1.763,1.763,0,0,0-1.083.3,1.5,1.5,0,0,0-.539.705L14.2,8.5a2.8,2.8,0,0,1,.68-1.207,3,3,0,0,1,1.158-.731,4.471,4.471,0,0,1,1.514-.244,4.955,4.955,0,0,1,1.136.133,3.209,3.209,0,0,1,1.037.441,2.273,2.273,0,0,1,.754.833,2.721,2.721,0,0,1,.285,1.31v5.291H18.971V13.24h-.062a2.212,2.212,0,0,1-.477.617,2.312,2.312,0,0,1-.767.458A3.056,3.056,0,0,1,16.586,14.488Zm.482-1.371a2.016,2.016,0,0,0,.974-.223,1.643,1.643,0,0,0,.637-.593,1.529,1.529,0,0,0,.225-.81v-.931a.891.891,0,0,1-.3.135,4.4,4.4,0,0,1-.465.108q-.259.047-.512.082l-.438.061a3.3,3.3,0,0,0-.745.186,1.243,1.243,0,0,0-.519.357,1,1,0,0,0,.185,1.364A1.625,1.625,0,0,0,17.068,13.117Zm9.022,1.367a3.81,3.81,0,0,1-2.03-.52,3.436,3.436,0,0,1-1.3-1.44,4.716,4.716,0,0,1-.455-2.117,4.688,4.688,0,0,1,.463-2.13,3.479,3.479,0,0,1,1.309-1.44,3.762,3.762,0,0,1,2-.518,3.931,3.931,0,0,1,1.708.353,2.894,2.894,0,0,1,1.693,2.488H27.7a1.7,1.7,0,0,0-.512-.956,1.507,1.507,0,0,0-1.077-.382,1.69,1.69,0,0,0-1.005.306,1.983,1.983,0,0,0-.67.878,3.536,3.536,0,0,0-.239,1.369,3.674,3.674,0,0,0,.236,1.389,1.99,1.99,0,0,0,.667.89,1.8,1.8,0,0,0,1.75.153,1.46,1.46,0,0,0,.55-.457,1.746,1.746,0,0,0,.3-.724h1.783a3.087,3.087,0,0,1-.5,1.483,2.923,2.923,0,0,1-1.163,1.01A3.849,3.849,0,0,1,26.09,14.484Zm8.425,0a4.028,4.028,0,0,1-2.053-.5,3.341,3.341,0,0,1-1.325-1.412,4.7,4.7,0,0,1-.464-2.153,4.708,4.708,0,0,1,.465-2.143,3.5,3.5,0,0,1,1.305-1.441,3.688,3.688,0,0,1,1.973-.517,4.042,4.042,0,0,1,1.38.235,3.2,3.2,0,0,1,1.154.722,3.369,3.369,0,0,1,.79,1.242,5.047,5.047,0,0,1,.287,1.8v.572H31.546V9.629h4.694a2,2,0,0,0-.228-.956,1.684,1.684,0,0,0-.63-.66,1.8,1.8,0,0,0-.941-.241,1.839,1.839,0,0,0-1.005.273,1.9,1.9,0,0,0-.671.719,2.068,2.068,0,0,0-.243.976v1.1a2.573,2.573,0,0,0,.251,1.181,1.777,1.777,0,0,0,.7.753,2.093,2.093,0,0,0,1.063.261,2.233,2.233,0,0,0,.736-.115,1.557,1.557,0,0,0,.571-.343,1.48,1.48,0,0,0,.365-.564l1.742.2a2.7,2.7,0,0,1-.627,1.2,3.081,3.081,0,0,1-1.177.795A4.419,4.419,0,0,1,34.515,14.484Zm8.767-.157V3.786h4.04a4.458,4.458,0,0,1,1.9.357,2.564,2.564,0,0,1,1.135.975,2.635,2.635,0,0,1,.378,1.4,2.289,2.289,0,0,1-.246,1.1,2.056,2.056,0,0,1-.662.74,2.8,2.8,0,0,1-.933.407v.1a2.285,2.285,0,0,1,1.078.341,2.427,2.427,0,0,1,.845.879,2.676,2.676,0,0,1,.329,1.366,2.768,2.768,0,0,1-.4,1.471,2.7,2.7,0,0,1-1.194,1.026,4.691,4.691,0,0,1-2,.377Zm1.911-1.594h2.055a2.27,2.27,0,0,0,1.5-.4,1.3,1.3,0,0,0,.461-1.029,1.581,1.581,0,0,0-.232-.846,1.619,1.619,0,0,0-.659-.595A2.2,2.2,0,0,0,47.3,9.645H45.193Zm0-4.464h1.89a2.092,2.092,0,0,0,.891-.183,1.507,1.507,0,0,0,.625-.52,1.383,1.383,0,0,0,.23-.8,1.31,1.31,0,0,0-.43-1.008,1.823,1.823,0,0,0-1.274-.4H45.193Zm7.536,6.057V6.421h1.865v7.906Zm.94-9.026a1.076,1.076,0,0,1-.762-.3.964.964,0,0,1,0-1.431,1.124,1.124,0,0,1,1.523,0A.967.967,0,0,1,54.43,5,1.072,1.072,0,0,1,53.668,5.3Zm5.772,9.166a3,3,0,0,1-1.668-.478A3.24,3.24,0,0,1,56.61,12.6a5.2,5.2,0,0,1-.426-2.213,5.137,5.137,0,0,1,.434-2.228,3.207,3.207,0,0,1,1.175-1.374,3.036,3.036,0,0,1,1.652-.466,2.461,2.461,0,0,1,1.145.234,2.2,2.2,0,0,1,.71.562,3.508,3.508,0,0,1,.405.612h.078V3.786h1.865V14.327H61.817V13.08h-.111a3.24,3.24,0,0,1-.417.613,2.232,2.232,0,0,1-.72.549A2.5,2.5,0,0,1,59.441,14.467Zm.519-1.528a1.6,1.6,0,0,0,1.01-.322,2,2,0,0,0,.633-.9,3.792,3.792,0,0,0,.218-1.345,3.758,3.758,0,0,0-.215-1.334,1.926,1.926,0,0,0-.63-.881,1.809,1.809,0,0,0-2.053.012,1.975,1.975,0,0,0-.629.9,3.743,3.743,0,0,0-.212,1.306A3.79,3.79,0,0,0,58.3,11.7a2.035,2.035,0,0,0,.632.912A1.6,1.6,0,0,0,59.959,12.939Z" transform="translate(26.323 0.973)" fill="#202225"/><path d="M22.25,15.276,15.286,22.24a1.515,1.515,0,0,1-2.143,0L4.607,13.7,2.5,7.174,4.039,5.634,6.991,8.585A1.894,1.894,0,1,0,8.6,6.979L5.645,4.027,7.151,2.52,13.714,4.6l8.537,8.537a1.516,1.516,0,0,1,0,2.143ZM9.127,9.116a.378.378,0,0,1-.535,0L2.7,3.223a.379.379,0,0,1,.535-.535L9.126,8.579a.379.379,0,0,1,0,.536Z" transform="translate(-2.498 -2.52)" fill="#202225"/></g></g></g></g></g></svg>