<svg xmlns="http://www.w3.org/2000/svg" xmlns:xlink="http://www.w3.org/1999/xlink" width="307.295" height="304.367" viewBox="0 0 307.295 304.367"><defs><clipPath id="a"><circle cx="74.5" cy="74.5" r="74.5" transform="translate(1262 2952.219)" fill="#bf1414"/></clipPath><clipPath id="b"><rect width="160.198" height="162.12" fill="none"/></clipPath></defs><g transform="translate(-122.411 -1657.468)"><path d="M173.705.015C153.369.907-10.606,33.9.543,171.834c3.288,40.692,40.325,49.531,40.325,49.531l17.2,4.688L71.454,229.7s27.714,3.07,37.913,0,59.81,17.606,59.81,17.606,43.1,12.166,67.642-32.559c12.885-23.481,15.235-100.559,0-148.322C222.785,7.526,183.367-.408,173.705.015Z" transform="matrix(0.966, 0.259, -0.259, 0.966, 186.81, 1657.468)" fill="#eacf49" opacity="0.1"/><g transform="translate(-981.294 -1205.086)" clip-path="url(#a)"><g transform="translate(1257.021 2956.126)" clip-path="url(#b)"><g transform="translate(-482 -1893)"><circle cx="4.5" cy="4.5" r="4.5" transform="translate(482 1893)" fill="#0ba4eb"/></g><g transform="translate(-467 -1893)"><circle cx="4.5" cy="4.5" r="4.5" transform="translate(482 1893)" fill="#0ba4eb"/></g><g transform="translate(-452 -1893)"><circle cx="4.5" cy="4.5" r="4.5" transform="translate(482 1893)" fill="#0ba4eb"/></g><g transform="translate(-437 -1893)"><circle cx="4.5" cy="4.5" r="4.5" transform="translate(482 1893)" fill="#0ba4eb"/></g><g transform="translate(-422 -1893)"><circle cx="4.5" cy="4.5" r="4.5" transform="translate(482 1893)" fill="#0ba4eb"/></g><g transform="translate(-407 -1893)"><circle cx="4.5" cy="4.5" r="4.5" transform="translate(482 1893)" fill="#0ba4eb"/></g><g transform="translate(-392 -1893)"><circle cx="4.5" cy="4.5" r="4.5" transform="translate(482 1893)" fill="#0ba4eb"/></g><g transform="translate(-377 -1893)"><circle cx="4.5" cy="4.5" r="4.5" transform="translate(482 1893)" fill="#0ba4eb"/></g><g transform="translate(-362 -1893)"><circle cx="4.5" cy="4.5" r="4.5" transform="translate(482 1893)" fill="#0ba4eb"/></g><g transform="translate(-347 -1893)"><circle cx="4.5" cy="4.5" r="4.5" transform="translate(482 1893)" fill="#0ba4eb"/></g><g transform="translate(-332 -1893)"><circle cx="4.5" cy="4.5" r="4.5" transform="translate(482 1893)" fill="#0ba4eb"/></g><g transform="translate(-482 -1878)"><circle cx="4.5" cy="4.5" r="4.5" transform="translate(482 1893)" fill="#0ba4eb"/></g><g transform="translate(-467 -1878)"><circle cx="4.5" cy="4.5" r="4.5" transform="translate(482 1893)" fill="#0ba4eb"/></g><g transform="translate(-452 -1878)"><circle cx="4.5" cy="4.5" r="4.5" transform="translate(482 1893)" fill="#0ba4eb"/></g><g transform="translate(-437 -1878)"><circle cx="4.5" cy="4.5" r="4.5" transform="translate(482 1893)" fill="#0ba4eb"/></g><g transform="translate(-422 -1878)"><circle cx="4.5" cy="4.5" r="4.5" transform="translate(482 1893)" fill="#0ba4eb"/></g><g transform="translate(-407 -1878)"><circle cx="4.5" cy="4.5" r="4.5" transform="translate(482 1893)" fill="#0ba4eb"/></g><g transform="translate(-392 -1878)"><circle cx="4.5" cy="4.5" r="4.5" transform="translate(482 1893)" fill="#0ba4eb"/></g><g transform="translate(-377 -1878)"><circle cx="4.5" cy="4.5" r="4.5" transform="translate(482 1893)" fill="#0ba4eb"/></g><g transform="translate(-362 -1878)"><circle cx="4.5" cy="4.5" r="4.5" transform="translate(482 1893)" fill="#0ba4eb"/></g><g transform="translate(-347 -1878)"><circle cx="4.5" cy="4.5" r="4.5" transform="translate(482 1893)" fill="#0ba4eb"/></g><g transform="translate(-332 -1878)"><circle cx="4.5" cy="4.5" r="4.5" transform="translate(482 1893)" fill="#0ba4eb"/></g><g transform="translate(-482 -1863)"><circle cx="4.5" cy="4.5" r="4.5" transform="translate(482 1893)" fill="#0ba4eb"/></g><g transform="translate(-467 -1863)"><circle cx="4.5" cy="4.5" r="4.5" transform="translate(482 1893)" fill="#0ba4eb"/></g><g transform="translate(-452 -1863)"><circle cx="4.5" cy="4.5" r="4.5" transform="translate(482 1893)" fill="#0ba4eb"/></g><g transform="translate(-437 -1863)"><circle cx="4.5" cy="4.5" r="4.5" transform="translate(482 1893)" fill="#0ba4eb"/></g><g transform="translate(-422 -1863)"><circle cx="4.5" cy="4.5" r="4.5" transform="translate(482 1893)" fill="#0ba4eb"/></g><g transform="translate(-407 -1863)"><circle cx="4.5" cy="4.5" r="4.5" transform="translate(482 1893)" fill="#0ba4eb"/></g><g transform="translate(-392 -1863)"><circle cx="4.5" cy="4.5" r="4.5" transform="translate(482 1893)" fill="#0ba4eb"/></g><g transform="translate(-377 -1863)"><circle cx="4.5" cy="4.5" r="4.5" transform="translate(482 1893)" fill="#0ba4eb"/></g><g transform="translate(-362 -1863)"><circle cx="4.5" cy="4.5" r="4.5" transform="translate(482 1893)" fill="#0ba4eb"/></g><g transform="translate(-347 -1863)"><circle cx="4.5" cy="4.5" r="4.5" transform="translate(482 1893)" fill="#0ba4eb"/></g><g transform="translate(-332 -1863)"><circle cx="4.5" cy="4.5" r="4.5" transform="translate(482 1893)" fill="#0ba4eb"/></g><g transform="translate(-482 -1848)"><circle cx="4.5" cy="4.5" r="4.5" transform="translate(482 1893)" fill="#0ba4eb"/></g><g transform="translate(-467 -1848)"><circle cx="4.5" cy="4.5" r="4.5" transform="translate(482 1893)" fill="#0ba4eb"/></g><g transform="translate(-452 -1848)"><circle cx="4.5" cy="4.5" r="4.5" transform="translate(482 1893)" fill="#0ba4eb"/></g><g transform="translate(-437 -1848)"><circle cx="4.5" cy="4.5" r="4.5" transform="translate(482 1893)" fill="#0ba4eb"/></g><g transform="translate(-422 -1848)"><circle cx="4.5" cy="4.5" r="4.5" transform="translate(482 1893)" fill="#0ba4eb"/></g><g transform="translate(-407 -1848)"><circle cx="4.5" cy="4.5" r="4.5" transform="translate(482 1893)" fill="#0ba4eb"/></g><g transform="translate(-392 -1848)"><circle cx="4.5" cy="4.5" r="4.5" transform="translate(482 1893)" fill="#0ba4eb"/></g><g transform="translate(-377 -1848)"><circle cx="4.5" cy="4.5" r="4.5" transform="translate(482 1893)" fill="#0ba4eb"/></g><g transform="translate(-362 -1848)"><circle cx="4.5" cy="4.5" r="4.5" transform="translate(482 1893)" fill="#0ba4eb"/></g><g transform="translate(-347 -1848)"><circle cx="4.5" cy="4.5" r="4.5" transform="translate(482 1893)" fill="#0ba4eb"/></g><g transform="translate(-332 -1848)"><circle cx="4.5" cy="4.5" r="4.5" transform="translate(482 1893)" fill="#0ba4eb"/></g><g transform="translate(-482 -1833)"><circle cx="4.5" cy="4.5" r="4.5" transform="translate(482 1893)" fill="#0ba4eb"/></g><g transform="translate(-467 -1833)"><circle cx="4.5" cy="4.5" r="4.5" transform="translate(482 1893)" fill="#0ba4eb"/></g><g transform="translate(-452 -1833)"><circle cx="4.5" cy="4.5" r="4.5" transform="translate(482 1893)" fill="#0ba4eb"/></g><g transform="translate(-437 -1833)"><circle cx="4.5" cy="4.5" r="4.5" transform="translate(482 1893)" fill="#0ba4eb"/></g><g transform="translate(-422 -1833)"><circle cx="4.5" cy="4.5" r="4.5" transform="translate(482 1893)" fill="#0ba4eb"/></g><g transform="translate(-407 -1833)"><circle cx="4.5" cy="4.5" r="4.5" transform="translate(482 1893)" fill="#0ba4eb"/></g><g transform="translate(-392 -1833)"><circle cx="4.5" cy="4.5" r="4.5" transform="translate(482 1893)" fill="#0ba4eb"/></g><g transform="translate(-377 -1833)"><circle cx="4.5" cy="4.5" r="4.5" transform="translate(482 1893)" fill="#0ba4eb"/></g><g transform="translate(-362 -1833)"><circle cx="4.5" cy="4.5" r="4.5" transform="translate(482 1893)" fill="#0ba4eb"/></g><g transform="translate(-347 -1833)"><circle cx="4.5" cy="4.5" r="4.5" transform="translate(482 1893)" fill="#0ba4eb"/></g><g transform="translate(-332 -1833)"><circle cx="4.5" cy="4.5" r="4.5" transform="translate(482 1893)" fill="#0ba4eb"/></g><g transform="translate(-482 -1818)"><circle cx="4.5" cy="4.5" r="4.5" transform="translate(482 1893)" fill="#0ba4eb"/></g><g transform="translate(-467 -1818)"><circle cx="4.5" cy="4.5" r="4.5" transform="translate(482 1893)" fill="#0ba4eb"/></g><g transform="translate(-452 -1818)"><circle cx="4.5" cy="4.5" r="4.5" transform="translate(482 1893)" fill="#0ba4eb"/></g><g transform="translate(-437 -1818)"><circle cx="4.5" cy="4.5" r="4.5" transform="translate(482 1893)" fill="#0ba4eb"/></g><g transform="translate(-422 -1818)"><circle cx="4.5" cy="4.5" r="4.5" transform="translate(482 1893)" fill="#0ba4eb"/></g><g transform="translate(-407 -1818)"><circle cx="4.5" cy="4.5" r="4.5" transform="translate(482 1893)" fill="#0ba4eb"/></g><g transform="translate(-392 -1818)"><circle cx="4.5" cy="4.5" r="4.5" transform="translate(482 1893)" fill="#0ba4eb"/></g><g transform="translate(-377 -1818)"><circle cx="4.5" cy="4.5" r="4.5" transform="translate(482 1893)" fill="#0ba4eb"/></g><g transform="translate(-362 -1818)"><circle cx="4.5" cy="4.5" r="4.5" transform="translate(482 1893)" fill="#0ba4eb"/></g><g transform="translate(-347 -1818)"><circle cx="4.5" cy="4.5" r="4.5" transform="translate(482 1893)" fill="#0ba4eb"/></g><g transform="translate(-332 -1818)"><circle cx="4.5" cy="4.5" r="4.5" transform="translate(482 1893)" fill="#0ba4eb"/></g><g transform="translate(-482 -1803)"><circle cx="4.5" cy="4.5" r="4.5" transform="translate(482 1893)" fill="#0ba4eb"/></g><g transform="translate(-467 -1803)"><circle cx="4.5" cy="4.5" r="4.5" transform="translate(482 1893)" fill="#0ba4eb"/></g><g transform="translate(-452 -1803)"><circle cx="4.5" cy="4.5" r="4.5" transform="translate(482 1893)" fill="#0ba4eb"/></g><g transform="translate(-437 -1803)"><circle cx="4.5" cy="4.5" r="4.5" transform="translate(482 1893)" fill="#0ba4eb"/></g><g transform="translate(-422 -1803)"><circle cx="4.5" cy="4.5" r="4.5" transform="translate(482 1893)" fill="#0ba4eb"/></g><g transform="translate(-407 -1803)"><circle cx="4.5" cy="4.5" r="4.5" transform="translate(482 1893)" fill="#0ba4eb"/></g><g transform="translate(-392 -1803)"><circle cx="4.5" cy="4.5" r="4.5" transform="translate(482 1893)" fill="#0ba4eb"/></g><g transform="translate(-377 -1803)"><circle cx="4.5" cy="4.5" r="4.5" transform="translate(482 1893)" fill="#0ba4eb"/></g><g transform="translate(-362 -1803)"><circle cx="4.5" cy="4.5" r="4.5" transform="translate(482 1893)" fill="#0ba4eb"/></g><g transform="translate(-347 -1803)"><circle cx="4.5" cy="4.5" r="4.5" transform="translate(482 1893)" fill="#0ba4eb"/></g><g transform="translate(-332 -1803)"><circle cx="4.5" cy="4.5" r="4.5" transform="translate(482 1893)" fill="#0ba4eb"/></g><g transform="translate(-482 -1788)"><circle cx="4.5" cy="4.5" r="4.5" transform="translate(482 1893)" fill="#0ba4eb"/></g><g transform="translate(-467 -1788)"><circle cx="4.5" cy="4.5" r="4.5" transform="translate(482 1893)" fill="#0ba4eb"/></g><g transform="translate(-452 -1788)"><circle cx="4.5" cy="4.5" r="4.5" transform="translate(482 1893)" fill="#0ba4eb"/></g><g transform="translate(-437 -1788)"><circle cx="4.5" cy="4.5" r="4.5" transform="translate(482 1893)" fill="#0ba4eb"/></g><g transform="translate(-422 -1788)"><circle cx="4.5" cy="4.5" r="4.5" transform="translate(482 1893)" fill="#0ba4eb"/></g><g transform="translate(-407 -1788)"><circle cx="4.5" cy="4.5" r="4.5" transform="translate(482 1893)" fill="#0ba4eb"/></g><g transform="translate(-392 -1788)"><circle cx="4.5" cy="4.5" r="4.5" transform="translate(482 1893)" fill="#0ba4eb"/></g><g transform="translate(-377 -1788)"><circle cx="4.5" cy="4.5" r="4.5" transform="translate(482 1893)" fill="#0ba4eb"/></g><g transform="translate(-362 -1788)"><circle cx="4.5" cy="4.5" r="4.5" transform="translate(482 1893)" fill="#0ba4eb"/></g><g transform="translate(-347 -1788)"><circle cx="4.5" cy="4.5" r="4.5" transform="translate(482 1893)" fill="#0ba4eb"/></g><g transform="translate(-332 -1788)"><circle cx="4.5" cy="4.5" r="4.5" transform="translate(482 1893)" fill="#0ba4eb"/></g><g transform="translate(-482 -1773)"><circle cx="4.5" cy="4.5" r="4.5" transform="translate(482 1893)" fill="#0ba4eb"/></g><g transform="translate(-467 -1773)"><circle cx="4.5" cy="4.5" r="4.5" transform="translate(482 1893)" fill="#0ba4eb"/></g><g transform="translate(-452 -1773)"><circle cx="4.5" cy="4.5" r="4.5" transform="translate(482 1893)" fill="#0ba4eb"/></g><g transform="translate(-437 -1773)"><circle cx="4.5" cy="4.5" r="4.5" transform="translate(482 1893)" fill="#0ba4eb"/></g><g transform="translate(-422 -1773)"><circle cx="4.5" cy="4.5" r="4.5" transform="translate(482 1893)" fill="#0ba4eb"/></g><g transform="translate(-407 -1773)"><circle cx="4.5" cy="4.5" r="4.5" transform="translate(482 1893)" fill="#0ba4eb"/></g><g transform="translate(-392 -1773)"><circle cx="4.5" cy="4.5" r="4.5" transform="translate(482 1893)" fill="#0ba4eb"/></g><g transform="translate(-377 -1773)"><circle cx="4.5" cy="4.5" r="4.5" transform="translate(482 1893)" fill="#0ba4eb"/></g><g transform="translate(-362 -1773)"><circle cx="4.5" cy="4.5" r="4.5" transform="translate(482 1893)" fill="#0ba4eb"/></g><g transform="translate(-347 -1773)"><circle cx="4.5" cy="4.5" r="4.5" transform="translate(482 1893)" fill="#0ba4eb"/></g><g transform="translate(-332 -1773)"><circle cx="4.5" cy="4.5" r="4.5" transform="translate(482 1893)" fill="#0ba4eb"/></g><g transform="translate(-482 -1758)"><circle cx="4.5" cy="4.5" r="4.5" transform="translate(482 1893)" fill="#0ba4eb"/></g><g transform="translate(-467 -1758)"><circle cx="4.5" cy="4.5" r="4.5" transform="translate(482 1893)" fill="#0ba4eb"/></g><g transform="translate(-452 -1758)"><circle cx="4.5" cy="4.5" r="4.5" transform="translate(482 1893)" fill="#0ba4eb"/></g><g transform="translate(-437 -1758)"><circle cx="4.5" cy="4.5" r="4.5" transform="translate(482 1893)" fill="#0ba4eb"/></g><g transform="translate(-422 -1758)"><circle cx="4.5" cy="4.5" r="4.5" transform="translate(482 1893)" fill="#0ba4eb"/></g><g transform="translate(-407 -1758)"><circle cx="4.5" cy="4.5" r="4.5" transform="translate(482 1893)" fill="#0ba4eb"/></g><g transform="translate(-392 -1758)"><circle cx="4.5" cy="4.5" r="4.5" transform="translate(482 1893)" fill="#0ba4eb"/></g><g transform="translate(-377 -1758)"><circle cx="4.5" cy="4.5" r="4.5" transform="translate(482 1893)" fill="#0ba4eb"/></g><g transform="translate(-362 -1758)"><circle cx="4.5" cy="4.5" r="4.5" transform="translate(482 1893)" fill="#0ba4eb"/></g><g transform="translate(-347 -1758)"><circle cx="4.5" cy="4.5" r="4.5" transform="translate(482 1893)" fill="#0ba4eb"/></g><g transform="translate(-332 -1758)"><circle cx="4.5" cy="4.5" r="4.5" transform="translate(482 1893)" fill="#0ba4eb"/></g><g transform="translate(-482 -1743)"><circle cx="4.5" cy="4.5" r="4.5" transform="translate(482 1893)" fill="#0ba4eb"/></g><g transform="translate(-467 -1743)"><circle cx="4.5" cy="4.5" r="4.5" transform="translate(482 1893)" fill="#0ba4eb"/></g><g transform="translate(-452 -1743)"><circle cx="4.5" cy="4.5" r="4.5" transform="translate(482 1893)" fill="#0ba4eb"/></g><g transform="translate(-437 -1743)"><circle cx="4.5" cy="4.5" r="4.5" transform="translate(482 1893)" fill="#0ba4eb"/></g><g transform="translate(-422 -1743)"><circle cx="4.5" cy="4.5" r="4.5" transform="translate(482 1893)" fill="#0ba4eb"/></g><g transform="translate(-407 -1743)"><circle cx="4.5" cy="4.5" r="4.5" transform="translate(482 1893)" fill="#0ba4eb"/></g><g transform="translate(-392 -1743)"><circle cx="4.5" cy="4.5" r="4.5" transform="translate(482 1893)" fill="#0ba4eb"/></g><g transform="translate(-377 -1743)"><circle cx="4.5" cy="4.5" r="4.5" transform="translate(482 1893)" fill="#0ba4eb"/></g><g transform="translate(-362 -1743)"><circle cx="4.5" cy="4.5" r="4.5" transform="translate(482 1893)" fill="#0ba4eb"/></g><g transform="translate(-347 -1743)"><circle cx="4.5" cy="4.5" r="4.5" transform="translate(482 1893)" fill="#0ba4eb"/></g><g transform="translate(-332 -1743)"><circle cx="4.5" cy="4.5" r="4.5" transform="translate(482 1893)" fill="#0ba4eb"/></g></g></g></g></svg>