<svg xmlns="http://www.w3.org/2000/svg" width="452.345" height="527.601" viewBox="0 0 452.345 527.601"><g transform="translate(0 0)"><path d="M766.11,327.659H342.623a14.249,14.249,0,0,1-14.233-14.233V147.432A14.249,14.249,0,0,1,342.623,133.2H766.11a14.249,14.249,0,0,1,14.233,14.233V313.427A14.249,14.249,0,0,1,766.11,327.659Z" transform="translate(-328.39 -133.199)" fill="#f2f2f2"/><path d="M669.168,320.407h-257.5a72.457,72.457,0,0,1-72.375-72.375V216.485a72.457,72.457,0,0,1,72.375-72.376H700.715a72.457,72.457,0,0,1,72.375,72.376A104.04,104.04,0,0,1,669.168,320.407Z" transform="translate(-330.214 -135.025)" fill="#fff"/><path d="M620.739,199.7H450.529a3.671,3.671,0,0,1,0-7.341h170.21a3.671,3.671,0,0,1,0,7.341Z" transform="translate(-348.21 -143.097)" fill="#e6e6e6"/><path d="M706.9,246.731H450.529a3.671,3.671,0,0,1,0-7.341H706.9a3.671,3.671,0,1,1,0,7.341Z" transform="translate(-348.21 -150.965)" fill="#e6e6e6"/><path d="M706.9,293.762H450.529a3.671,3.671,0,0,1,0-7.341H706.9a3.671,3.671,0,1,1,0,7.341Z" transform="translate(-348.21 -158.833)" fill="#e6e6e6"/><path d="M706.9,293.762H450.529a3.671,3.671,0,0,1,0-7.341H706.9a3.671,3.671,0,1,1,0,7.341Z" transform="translate(-348.21 -158.833)" fill="#e6e6e6"/><path d="M634.1,252.009a7.568,7.568,0,0,0,9.166,7.117l14,22.964,5.958-12.642-14.206-19.869a7.609,7.609,0,0,0-14.915,2.43Z" transform="translate(-379.534 -151.748)" fill="#ffb6b6"/><path d="M741.788,321.338l-48.24-26.167L678.332,280.9s-6.615-1.771-4.18-3.922-4.5-4.225-4.5-4.225l-8.168-7.664L649.873,273.3l3.359,5.207s-.231,8.62,4.491,6.962,3.542,5.491,3.542,5.491l28.187,43.693Z" transform="translate(-382.174 -155.264)" fill="#3f3d56"/><circle cx="47.119" cy="47.119" r="47.119" transform="translate(170.095 47.183)" fill="#f0ce14"/><path d="M429.139,604.009h-9.8l-4.662-37.79h14.46Z" transform="translate(-69.375 -94.727)" fill="#ffb6b6"/><path d="M759.75,760.24h-7.026l-1.254-6.633-3.212,6.633H729.623a4.189,4.189,0,0,1-2.38-7.636l14.881-10.277V735.62l15.652.934Z" transform="translate(-394.815 -233.983)" fill="#2f2e41"/><path d="M335.037,604.009h-9.8l-4.662-37.79h14.46Z" transform="translate(-53.632 -94.727)" fill="#ffb6b6"/><path d="M665.648,760.24h-7.026l-1.254-6.633-3.212,6.633H635.521a4.189,4.189,0,0,1-2.38-7.636l14.881-10.277V735.62l15.652.934Z" transform="translate(-379.072 -233.983)" fill="#2f2e41"/><rect width="49.45" height="56.297" transform="translate(299.919 223.482)" fill="#ffb6b6"/><path d="M676.485,434.927l-8.368,9.89-14.455,30.431L617.24,561.907l-7.7,18.327,6.22,32.4s1.007,22.825,1.007,26.561c0,7.608,6.363,11.823,6.363,11.823L627.8,675.33l45.266-1.9s-1.579-26.8-11.06-33.56-13.839-41.992-13.839-41.992l-5.151-15.632,50.211-59.52.324,20.805.157,10.07s-7.353,65.5,1.218,78.208.175,11.216.175,11.216l.408,26.22,53.634.38-11.833-75.489s-6.008-4.744-2.794-9.513-3.116-10.609-3.116-10.609l2.839-58.932s-3.143-10.179.554-11.5.485-10.077.485-10.077l.549-11.407-11.031-35.376Z" transform="translate(-375.426 -183.678)" fill="#2f2e41"/><path d="M736.459,384.309l5.325-15.976,3.8-5.325,1.521-15.215c0-41.081-9.163-34.241-9.163-34.241L732.655,299.1l-24.345-.761-15.6,14.835-12.933,4.565-5.064,26.315,9.249,28.08,2.282,15.215c-4.354,8.037-3.985,4.236-.38,10.27l42.983,11.792c15.215,5.325,15.215-8.368,12.164-11.792S736.459,384.309,736.459,384.309Z" transform="translate(-386.33 -160.827)" fill="#3f3d56"/><circle cx="22.568" cy="22.568" r="22.568" transform="translate(308.44 87.271)" fill="#ffb6b6"/><path d="M699.506,307.834" transform="translate(-390.477 -162.415)" fill="#2f2e41"/><path d="M750.4,289.738a2.772,2.772,0,0,1-1.544,4.055c-3.028,1-4.892,3.933-7.067,6.276s-5.66,4.276-8.429,2.685-2.952-5.622-5.265-7.813c-2.252-2.13-5.995-1.872-8.642-.251l-.079.049a2.791,2.791,0,0,1-4.269-2.839q1.391-7.4,2.781-14.8a49.763,49.763,0,0,1-10.415,15.748,11.456,11.456,0,0,1-4.519,3.18c-1.582.5-3.119-1.134-4.656-.837,3.819-3.34,16.661-24.748,14.363-39.058l-8.1.913a7.446,7.446,0,0,0-1.811-3.416,8.753,8.753,0,0,1-.464,3.674c-1.126.129-2.259.251-3.385.38-1.567.175-3.271.327-4.618-.495-2.244-1.369-2.313-4.61-1.674-7.166,1.871-7.433,7.547-13.648,14.493-16.9s9,3.986,16.318,1.674c14.455-4.565,25.531,3.241,29.434,17.726C756.131,264.671,753.749,277.565,750.4,289.738Z" transform="translate(-389.264 -149.773)" fill="#2f2e41"/><path d="M830.14,759.863H802.506l-.119-.216c-.353-.641-.694-1.32-1.013-2.018-2.847-6.094-4.05-13.064-5.111-19.213l-.8-4.635a2.862,2.862,0,0,1,4.505-2.8q6.3,4.584,12.6,9.159c1.591,1.158,3.409,2.5,5.149,3.946.168-.816.344-1.634.519-2.44a2.864,2.864,0,0,1,5.23-.9l3.233,5.195c2.358,3.794,4.44,7.532,4.016,11.564a.633.633,0,0,1-.011.146,9.113,9.113,0,0,1-.469,1.941Z" transform="translate(-406.524 -233.115)" fill="#f0f0f0"/><path d="M817.467,766.095l-262.6.256a.991.991,0,0,1,0-1.983l262.6-.256a.991.991,0,1,1,0,1.983Z" transform="translate(-366.114 -238.75)" fill="#cacaca"/><path d="M577.951,314.714l-28.885-24.393a4.884,4.884,0,0,1-.58-6.875l5.316-6.3a4.884,4.884,0,0,1,6.875-.58l28.885,24.393a4.884,4.884,0,0,1,.58,6.875l-5.316,6.3A4.884,4.884,0,0,1,577.951,314.714Z" transform="translate(-365.02 -156.993)" fill="#3f3d56"/><path d="M551.109,284.216a2.632,2.632,0,0,0,.312,3.7l28.885,24.393a2.632,2.632,0,0,0,3.7-.312l5.316-6.3a2.632,2.632,0,0,0-.312-3.7L560.13,277.608a2.632,2.632,0,0,0-3.7.312Z" transform="translate(-365.547 -157.255)" fill="#fff"/><path d="M570.281,294.858a1.11,1.11,0,0,1-.878.464l-4.538.1a1.111,1.111,0,1,1-.051-2.22l2.969-.068-2.924-7.715a1.111,1.111,0,0,1,2.077-.787l3.48,9.183a1.111,1.111,0,0,1-.117,1.014Z" transform="translate(-367.762 -158.414)" fill="#f0ce14"/><path d="M570.536,299.366a7.568,7.568,0,0,1,6.078,9.885l21.306,16.412-13.215,4.548L566.5,313.929a7.609,7.609,0,0,1,4.037-14.563Z" transform="translate(-367.434 -160.984)" fill="#ffb6b6"/><path d="M684.305,309.129l-54.55,33.539s-21.994-8.138-17.7-11.905-9.385-6.314-9.385-6.314l-15.116-10.17-8.772,10.194s1.6,16.558,4.318,13.691,6.784,4.965,6.784,4.965,1.2,8.745,8.943,6.545,28.514,20.868,28.514,20.868L694.48,345.5Z" transform="translate(-370.281 -162.632)" fill="#3f3d56"/><path d="M584.43,261.488a4.073,4.073,0,0,1-3.259-1.63l-9.991-13.321a4.073,4.073,0,1,1,6.518-4.888l6.536,8.714,16.788-25.181A4.074,4.074,0,0,1,607.8,229.7L587.82,259.674a4.075,4.075,0,0,1-3.276,1.813Z" transform="translate(-368.872 -148.285)" fill="#fff"/></g></svg>