<svg xmlns="http://www.w3.org/2000/svg" width="905.835" height="455.057" viewBox="0 0 905.835 455.057"><g transform="translate(-24.199 -316.828)"><path d="M1698.033,567.568s31.4-54.33-213.714-77.069,127.927,358.3,127.927,358.3l20.312,23.907L1620.5,880.43s-95.27-28.451-136.181-21.828S1215.5,708.246,1215.5,708.246l30.766,96.806L1286.8,858.6s-254.48,171.125-418.925,21.828,58.978-370.566,58.978-370.566" transform="translate(-781.766 -171.193)" fill="none" stroke="#b4b4b4" stroke-width="3" stroke-dasharray="12"/><path d="M11.428,4.352a4,4,0,0,1,6.433,0l6.714,9.084a4,4,0,0,1-3.217,6.378H7.931a4,4,0,0,1-3.217-6.378Z" transform="matrix(-0.966, -0.259, 0.259, -0.966, 924.906, 424.814)" fill="#0ba4eb"/></g></svg>