<svg xmlns="http://www.w3.org/2000/svg" xmlns:xlink="http://www.w3.org/1999/xlink" width="95" height="122.652" viewBox="0 0 95 122.652"><defs><filter id="a" x="0" y="0" width="95" height="95" filterUnits="userSpaceOnUse"><feOffset dy="3" input="SourceAlpha"/><feGaussianBlur stdDeviation="1.5" result="b"/><feFlood flood-opacity="0.039"/><feComposite operator="in" in2="b"/><feComposite in="SourceGraphic"/></filter></defs><g transform="translate(-0.121 -1.985)"><path d="M7.355,6.986a1.5,1.5,0,0,0-.646-1.123,2.518,2.518,0,0,0-1.481-.4,2.829,2.829,0,0,0-1.094.191,1.617,1.617,0,0,0-.7.522,1.252,1.252,0,0,0-.246.754,1.085,1.085,0,0,0,.16.611,1.432,1.432,0,0,0,.444.437,3.086,3.086,0,0,0,.621.3,6.372,6.372,0,0,0,.691.205l1.057.264a7.433,7.433,0,0,1,1.231.4,4.338,4.338,0,0,1,1.061.637,2.856,2.856,0,0,1,.744.93,2.821,2.821,0,0,1,.277,1.279,3.06,3.06,0,0,1-.508,1.744A3.326,3.326,0,0,1,7.5,14.912a5.694,5.694,0,0,1-2.308.422,5.839,5.839,0,0,1-2.282-.409A3.4,3.4,0,0,1,1.4,13.734a3.488,3.488,0,0,1-.585-1.9H2.827a1.709,1.709,0,0,0,.363.981,1.923,1.923,0,0,0,.836.584,3.274,3.274,0,0,0,1.154.193,3.138,3.138,0,0,0,1.171-.2,1.865,1.865,0,0,0,.792-.564,1.328,1.328,0,0,0,.289-.842,1.078,1.078,0,0,0-.256-.73,1.933,1.933,0,0,0-.708-.485A7.219,7.219,0,0,0,5.4,10.417l-1.282-.335A5.139,5.139,0,0,1,1.923,9a2.479,2.479,0,0,1-.805-1.941,2.885,2.885,0,0,1,.539-1.745A3.57,3.57,0,0,1,3.135,4.147,5.16,5.16,0,0,1,5.254,3.73a5.015,5.015,0,0,1,2.108.416A3.449,3.449,0,0,1,8.786,5.3,2.971,2.971,0,0,1,9.32,6.986ZM11.2,18.333V6.7h1.96V8.1h.119a3.753,3.753,0,0,1,.433-.655,2.356,2.356,0,0,1,.76-.6A2.633,2.633,0,0,1,15.7,6.593a3.248,3.248,0,0,1,1.768.5,3.431,3.431,0,0,1,1.257,1.47,5.5,5.5,0,0,1,.465,2.383,5.561,5.561,0,0,1-.456,2.367A3.466,3.466,0,0,1,17.487,14.8a3.206,3.206,0,0,1-1.784.512A2.674,2.674,0,0,1,14.5,15.07a2.388,2.388,0,0,1-.77-.587,3.466,3.466,0,0,1-.446-.656H13.2v4.507Zm1.956-7.4a4.057,4.057,0,0,0,.233,1.439,2.138,2.138,0,0,0,.677.961,1.879,1.879,0,0,0,2.183-.011,2.177,2.177,0,0,0,.676-.976,4.055,4.055,0,0,0,.23-1.413,4,4,0,0,0-.226-1.4,2.113,2.113,0,0,0-.673-.959,1.935,1.935,0,0,0-2.2-.013,2.06,2.06,0,0,0-.674.943A4.02,4.02,0,0,0,13.157,10.933Zm11.423,4.4a4.09,4.09,0,0,1-2.147-.546,3.688,3.688,0,0,1-1.407-1.528,4.988,4.988,0,0,1-.5-2.287,5.024,5.024,0,0,1,.5-2.3A3.684,3.684,0,0,1,22.433,7.14a4.492,4.492,0,0,1,4.294,0,3.684,3.684,0,0,1,1.407,1.531,5.024,5.024,0,0,1,.5,2.3,4.988,4.988,0,0,1-.5,2.287,3.688,3.688,0,0,1-1.407,1.528A4.09,4.09,0,0,1,24.58,15.329Zm.009-1.6a1.708,1.708,0,0,0,1.126-.371,2.232,2.232,0,0,0,.673-1,4.154,4.154,0,0,0,.224-1.4,4.18,4.18,0,0,0-.224-1.405,2.255,2.255,0,0,0-.673-1,1.7,1.7,0,0,0-1.126-.374,1.729,1.729,0,0,0-1.139.374,2.238,2.238,0,0,0-.677,1,4.18,4.18,0,0,0-.224,1.405,4.154,4.154,0,0,0,.224,1.4,2.216,2.216,0,0,0,.677,1A1.739,1.739,0,0,0,24.589,13.73Zm5.727,1.432V6.7h1.934v1.41h.088a2.12,2.12,0,0,1,.8-1.133,2.181,2.181,0,0,1,1.292-.4q.165,0,.372.015a2.774,2.774,0,0,1,.346.044V8.47a2.653,2.653,0,0,0-.4-.078,3.9,3.9,0,0,0-.523-.037,2.02,2.02,0,0,0-.98.234,1.752,1.752,0,0,0-.679.648,1.811,1.811,0,0,0-.248.951v4.973ZM41.148,6.7V8.245H36.289V6.7ZM37.487,4.677h2V12.62a1.243,1.243,0,0,0,.122.612.632.632,0,0,0,.326.289,1.273,1.273,0,0,0,.455.078,1.928,1.928,0,0,0,.34-.028q.156-.028.241-.047l.335,1.555q-.161.054-.454.121a3.733,3.733,0,0,1-.718.078,3.212,3.212,0,0,1-1.349-.229,2.074,2.074,0,0,1-.949-.777,2.32,2.32,0,0,1-.345-1.324Zm11.89,4.264-1.819.2a1.434,1.434,0,0,0-.266-.52,1.389,1.389,0,0,0-.509-.391,1.824,1.824,0,0,0-.78-.15,1.894,1.894,0,0,0-1.043.27.8.8,0,0,0-.419.7.737.737,0,0,0,.276.6,2.262,2.262,0,0,0,.922.38l1.441.308a3.677,3.677,0,0,1,1.788.822,1.946,1.946,0,0,1,.59,1.469,2.274,2.274,0,0,1-.464,1.406,3.037,3.037,0,0,1-1.275.952,4.79,4.79,0,0,1-1.873.343,4.311,4.311,0,0,1-2.5-.654,2.624,2.624,0,0,1-1.132-1.822l1.947-.185a1.358,1.358,0,0,0,.561.862,1.955,1.955,0,0,0,1.117.292,2.016,2.016,0,0,0,1.144-.29.858.858,0,0,0,.433-.723.76.76,0,0,0-.281-.6,1.963,1.963,0,0,0-.86-.362l-1.445-.3a3.431,3.431,0,0,1-1.8-.857,2.1,2.1,0,0,1-.581-1.526A2.192,2.192,0,0,1,42.982,7.8a2.779,2.779,0,0,1,1.2-.893,4.687,4.687,0,0,1,1.79-.317,3.853,3.853,0,0,1,2.342.634A2.673,2.673,0,0,1,49.377,8.941Z" transform="translate(24.869 106.304)" fill="#bcbcbc"/><g transform="matrix(1, 0, 0, 1, 0.12, 1.99)" filter="url(#a)"><rect width="86" height="86" rx="12" transform="translate(4.5 1.5)" fill="#fff"/></g><path d="M37.246,12.743c-.008-.02-.018-.039-.028-.06l.038.007-.011.054ZM32.593,28.6l-6.138.255L23.25,23.226l3.317-5.99,6.426.213,2.743,5.6L32.593,28.6ZM16.1,23.146l-3.22-5.826L16.248,11.7l6.865-.105,3.371,5.592-3.313,5.979Zm.142-11.538L13.707,7.239l3.371-4.113,5.884-.188L26.1,6.822l-3,4.681ZM13.033,28.647,7.6,28.116,4.977,22.879,7.263,17.57l5.529-.212,3.221,5.829-2.979,5.46ZM32.016,7.491l.521-1.035a18.564,18.564,0,0,1,4.682,6.226l-1.949-.31L32.016,7.491Zm-5.819-.7L23.055,2.9c.078-.095.5-.6.5-.611a18.591,18.591,0,0,0-7.075.167c.012.008.419.523.5.63L13.615,7.2l-5.029.847L8.137,6.675,8.059,6.7a18.434,18.434,0,0,1,24.4-.308L31.93,7.448,26.2,6.789Zm-20.7,6.044-2.114.5.024.092,2.077-.489L7.189,17.5,4.9,22.829a14.964,14.964,0,0,0-2.71-.114,18.153,18.153,0,0,0,4.068,9.475l1.354-3.975,5.428.53,3.428,5.2L14.1,37.8a18.465,18.465,0,0,1-6.05-31.09l.455,1.4-3.01,4.728ZM22.875,34.151,25.7,38.1l.08-.057-2.8-3.922,3.484-5.167,6.132-.254c.124.277,1.695,3.81,1.684,3.81a17.739,17.739,0,0,0,4.355-9.522c-.005,0-2.517.011-2.812.013L33.07,17.392l2.214-4.919,1.954.312.005-.041A18.465,18.465,0,0,1,14.186,37.832l2.363-3.846Zm-8.711,3.724-.082-.05L14.1,37.8c.03.012.062.022.092.033l-.026.043ZM8.046,6.7,8.061,6.7l-.012.011,0-.005ZM32.48,6.355l.084.042-.028.059c-.026-.022-.049-.045-.075-.067Z" transform="translate(26.695 25.558)" fill="#bc376b"/></g></svg>