<svg xmlns="http://www.w3.org/2000/svg" xmlns:xlink="http://www.w3.org/1999/xlink" width="95" height="117.097" viewBox="0 0 95 117.097"><defs><filter id="a" x="0" y="0" width="95" height="95" filterUnits="userSpaceOnUse"><feOffset dy="3" input="SourceAlpha"/><feGaussianBlur stdDeviation="1.5" result="b"/><feFlood flood-opacity="0.039"/><feComposite operator="in" in2="b"/><feComposite in="SourceGraphic"/></filter></defs><g transform="translate(-0.537 -4.536)"><path d="M1.289,15.186V3.909H5.522A4.494,4.494,0,0,1,7.7,4.393,3.249,3.249,0,0,1,9.042,5.722,4,4,0,0,1,9.5,7.645a3.975,3.975,0,0,1-.458,1.926A3.243,3.243,0,0,1,7.688,10.9a4.584,4.584,0,0,1-2.2.481h-2.8V9.7H5.218a2.581,2.581,0,0,0,1.244-.264,1.678,1.678,0,0,0,.716-.727,2.33,2.33,0,0,0,.233-1.061,2.3,2.3,0,0,0-.233-1.058,1.641,1.641,0,0,0-.72-.715A2.678,2.678,0,0,0,5.2,5.614H3.333v9.572Zm11.885-4.956v4.956h-2V3.909H13.13V8.164h.1a2.424,2.424,0,0,1,.918-1.132,2.835,2.835,0,0,1,1.6-.415,3.069,3.069,0,0,1,1.533.369A2.521,2.521,0,0,1,18.3,8.068,3.765,3.765,0,0,1,18.658,9.8v5.383h-2V10.112a1.881,1.881,0,0,0-.437-1.331A1.583,1.583,0,0,0,15,8.306a1.931,1.931,0,0,0-.944.227,1.606,1.606,0,0,0-.648.657A2.169,2.169,0,0,0,13.174,10.231Zm11.2,5.123a4.09,4.09,0,0,1-2.147-.546,3.688,3.688,0,0,1-1.407-1.528,4.988,4.988,0,0,1-.5-2.287,5.024,5.024,0,0,1,.5-2.3,3.684,3.684,0,0,1,1.407-1.531,4.492,4.492,0,0,1,4.294,0A3.684,3.684,0,0,1,27.931,8.7a5.024,5.024,0,0,1,.5,2.3,4.988,4.988,0,0,1-.5,2.287,3.688,3.688,0,0,1-1.407,1.528A4.09,4.09,0,0,1,24.376,15.354Zm.009-1.6a1.708,1.708,0,0,0,1.126-.371,2.232,2.232,0,0,0,.673-1,4.154,4.154,0,0,0,.224-1.4,4.18,4.18,0,0,0-.224-1.405,2.255,2.255,0,0,0-.673-1A1.7,1.7,0,0,0,24.385,8.2a1.729,1.729,0,0,0-1.139.374,2.238,2.238,0,0,0-.677,1,4.18,4.18,0,0,0-.224,1.405,4.154,4.154,0,0,0,.224,1.4,2.216,2.216,0,0,0,.677,1A1.739,1.739,0,0,0,24.385,13.755Zm9.951-7.026V8.27H29.477V6.728ZM30.676,4.7h2v7.943a1.243,1.243,0,0,0,.122.612.632.632,0,0,0,.326.289,1.273,1.273,0,0,0,.455.078,1.928,1.928,0,0,0,.34-.028q.156-.028.241-.047l.335,1.555q-.161.054-.454.121a3.733,3.733,0,0,1-.718.078,3.212,3.212,0,0,1-1.349-.229,2.074,2.074,0,0,1-.949-.777,2.32,2.32,0,0,1-.345-1.324Zm8.934,10.652a4.09,4.09,0,0,1-2.147-.546,3.688,3.688,0,0,1-1.407-1.528,4.988,4.988,0,0,1-.5-2.287,5.024,5.024,0,0,1,.5-2.3,3.684,3.684,0,0,1,1.407-1.531,4.492,4.492,0,0,1,4.294,0A3.684,3.684,0,0,1,43.164,8.7a5.024,5.024,0,0,1,.5,2.3,4.988,4.988,0,0,1-.5,2.287,3.688,3.688,0,0,1-1.407,1.528A4.09,4.09,0,0,1,39.609,15.354Zm.009-1.6a1.708,1.708,0,0,0,1.126-.371,2.232,2.232,0,0,0,.673-1,4.154,4.154,0,0,0,.224-1.4,4.18,4.18,0,0,0-.224-1.405,2.255,2.255,0,0,0-.673-1A1.7,1.7,0,0,0,39.618,8.2a1.729,1.729,0,0,0-1.139.374,2.238,2.238,0,0,0-.677,1,4.18,4.18,0,0,0-.224,1.405,4.154,4.154,0,0,0,.224,1.4,2.216,2.216,0,0,0,.677,1A1.739,1.739,0,0,0,39.618,13.755Z" transform="translate(27.388 106.279)" fill="#bcbcbc"/><g transform="matrix(1, 0, 0, 1, 0.54, 4.54)" filter="url(#a)"><rect width="86" height="86" rx="12" transform="translate(4.5 1.5)" fill="#fff"/></g><path d="M34.931,7.77l-18.856.021.005-3.714L6.027,4V7.77H3.513A2.514,2.514,0,0,0,1,10.284V31.648a2.514,2.514,0,0,0,2.513,2.513H34.931a2.514,2.514,0,0,0,2.513-2.513V10.284A2.514,2.514,0,0,0,34.931,7.77ZM8.54,6.513h5.027v3.77H8.54Zm6.284,23.825a8.8,8.8,0,1,1,8.8-8.8A8.8,8.8,0,0,1,14.824,30.338ZM31.79,15.965A2.513,2.513,0,1,1,34.3,13.452,2.513,2.513,0,0,1,31.79,15.965ZM14.824,16.1a5.655,5.655,0,1,0,5.655,5.655A5.656,5.656,0,0,0,14.824,16.1Z" transform="translate(29.037 30.036)" fill="#5b516b"/></g></svg>