<svg xmlns="http://www.w3.org/2000/svg" xmlns:xlink="http://www.w3.org/1999/xlink" width="95" height="121.921" viewBox="0 0 95 121.921"><defs><filter id="a" x="0" y="0" width="95" height="95" filterUnits="userSpaceOnUse"><feOffset dy="3" input="SourceAlpha"/><feGaussianBlur stdDeviation="1.5" result="b"/><feFlood flood-opacity="0.039"/><feComposite operator="in" in2="b"/><feComposite in="SourceGraphic"/></filter></defs><g transform="translate(0.35 -2.716)"><path d="M8.4,3.821h2.044v7.37a3.949,3.949,0,0,1-.571,2.128,3.886,3.886,0,0,1-1.6,1.435,5.3,5.3,0,0,1-2.405.516,5.315,5.315,0,0,1-2.41-.516,3.871,3.871,0,0,1-1.6-1.435,3.96,3.96,0,0,1-.569-2.128V3.821H3.333v7.2a2.5,2.5,0,0,0,.311,1.254,2.209,2.209,0,0,0,.879.861,2.749,2.749,0,0,0,1.343.312,2.757,2.757,0,0,0,1.346-.312,2.2,2.2,0,0,0,.878-.861A2.512,2.512,0,0,0,8.4,11.019Zm8.4,2.819V8.182H11.94V6.641ZM13.139,4.614h2v7.943a1.243,1.243,0,0,0,.122.612.632.632,0,0,0,.326.289,1.273,1.273,0,0,0,.455.078,1.928,1.928,0,0,0,.34-.028q.156-.028.241-.047l.335,1.555q-.161.054-.454.121a3.733,3.733,0,0,1-.718.078,3.212,3.212,0,0,1-1.349-.229,2.074,2.074,0,0,1-.949-.777,2.32,2.32,0,0,1-.345-1.324ZM18.469,15.1V6.641h2V15.1Zm1.006-9.656a1.151,1.151,0,0,1-.816-.318,1.032,1.032,0,0,1,0-1.531,1.2,1.2,0,0,1,1.63,0,1.034,1.034,0,0,1,0,1.531A1.147,1.147,0,0,1,19.474,5.442ZM24.5,3.821V15.1h-2V3.821ZM26.548,15.1V6.641h2V15.1Zm1.006-9.656a1.151,1.151,0,0,1-.816-.318,1.032,1.032,0,0,1,0-1.531,1.2,1.2,0,0,1,1.63,0,1.034,1.034,0,0,1,0,1.531A1.147,1.147,0,0,1,27.554,5.442Zm7.259,1.2V8.182H29.953V6.641ZM31.151,4.614h2v7.943a1.243,1.243,0,0,0,.122.612.632.632,0,0,0,.326.289,1.273,1.273,0,0,0,.455.078,1.928,1.928,0,0,0,.34-.028q.156-.028.241-.047l.335,1.555q-.161.054-.454.121a3.733,3.733,0,0,1-.718.078,3.212,3.212,0,0,1-1.349-.229,2.074,2.074,0,0,1-.949-.777,2.32,2.32,0,0,1-.345-1.324ZM37.724,18.27a4.17,4.17,0,0,1-.752-.063,2.747,2.747,0,0,1-.547-.148l.463-1.551a2.7,2.7,0,0,0,.776.121.959.959,0,0,0,.6-.211,1.568,1.568,0,0,0,.441-.686l.172-.458L35.812,6.641h2.114l1.947,6.388h.088l1.956-6.388h2.123l-3.388,9.48a3.881,3.881,0,0,1-.628,1.156,2.57,2.57,0,0,1-.956.738A3.252,3.252,0,0,1,37.724,18.27Z" transform="translate(23.081 106.367)" fill="#bcbcbc"/><g transform="matrix(1, 0, 0, 1, -0.35, 2.72)" filter="url(#a)"><rect width="86" height="86" rx="12" transform="translate(4.5 1.5)" fill="#fff"/></g><path d="M20.64,24.951A2.311,2.311,0,0,1,18.33,22.64V20.33a2.311,2.311,0,0,1,2.311-2.311H34.5v6.932Zm1.733-5.1a1.733,1.733,0,1,0,1.733,1.733A1.734,1.734,0,0,0,22.373,19.848Zm-5.2.482V22.64a3.467,3.467,0,0,0,3.466,3.466H32.193v4.621a3.466,3.466,0,0,1-3.466,3.466H4.466A3.467,3.467,0,0,1,1,30.727V8.777A3.466,3.466,0,0,1,4.466,5.311H15.594L12.88,6.442H3.889a1.733,1.733,0,1,0,0,3.466h28.3v6.956H20.64A3.466,3.466,0,0,0,17.174,20.33ZM5.622,12.242H3.312v2.311H4.467V13.4H5.622Zm0,3.466H3.312v2.311h1.2l-.047-1.155,1.155.024Zm0,3.466H3.312v2.311h1.18L4.467,20.33H5.622Zm0,3.466H3.312v2.311h1.18L4.467,23.8l1.155.024Zm0,3.466H3.312v2.311H4.467V27.262H5.622Zm0,3.466H3.312v2.311h1.18l-.024-1.131H5.622ZM10.244,8.7,23.819,3l2.6,5.7H10.244ZM26.008,5.311h2.72a3.446,3.446,0,0,1,2.547,1.131H26.56Z" transform="translate(29.151 28.216)" fill="#0ba4eb"/></g></svg>