<svg xmlns="http://www.w3.org/2000/svg" xmlns:xlink="http://www.w3.org/1999/xlink" width="95" height="118.976" viewBox="0 0 95 118.976"><defs><filter id="a" x="0" y="0" width="95" height="95" filterUnits="userSpaceOnUse"><feOffset dy="3" input="SourceAlpha"/><feGaussianBlur stdDeviation="1.5" result="b"/><feFlood flood-opacity="0.039"/><feComposite operator="in" in2="b"/><feComposite in="SourceGraphic"/></filter></defs><g transform="translate(-0.237 -2.657)"><path d="M1.289,3.821h2.5l3.348,8.172h.132l3.348-8.172h2.5V15.1H11.156V7.35h-.1L7.936,15.063H6.474L3.355,7.332h-.1V15.1H1.289Zm19.356,7.722v-4.9h2V15.1H20.707V13.6h-.088a2.561,2.561,0,0,1-.941,1.161,2.754,2.754,0,0,1-1.606.451,2.843,2.843,0,0,1-1.466-.373,2.549,2.549,0,0,1-.993-1.084,3.831,3.831,0,0,1-.36-1.729V6.641h2v5.075A1.816,1.816,0,0,0,17.69,13a1.5,1.5,0,0,0,1.154.474,1.843,1.843,0,0,0,.856-.214,1.739,1.739,0,0,0,.681-.641A1.972,1.972,0,0,0,20.645,11.544ZM31.372,8.878l-1.819.2a1.434,1.434,0,0,0-.266-.52,1.389,1.389,0,0,0-.509-.391,1.823,1.823,0,0,0-.78-.15,1.894,1.894,0,0,0-1.043.27.8.8,0,0,0-.419.7.737.737,0,0,0,.276.6,2.262,2.262,0,0,0,.922.38l1.441.308a3.677,3.677,0,0,1,1.788.822,1.946,1.946,0,0,1,.59,1.469,2.274,2.274,0,0,1-.464,1.406,3.037,3.037,0,0,1-1.275.952,4.79,4.79,0,0,1-1.873.343,4.311,4.311,0,0,1-2.5-.654A2.624,2.624,0,0,1,24.31,12.79l1.947-.185a1.358,1.358,0,0,0,.561.862,1.955,1.955,0,0,0,1.117.292,2.016,2.016,0,0,0,1.144-.29.858.858,0,0,0,.433-.723.76.76,0,0,0-.281-.6,1.963,1.963,0,0,0-.86-.362l-1.445-.3a3.431,3.431,0,0,1-1.8-.857A2.1,2.1,0,0,1,24.548,9.1a2.192,2.192,0,0,1,.429-1.358,2.779,2.779,0,0,1,1.2-.893,4.687,4.687,0,0,1,1.79-.317,3.853,3.853,0,0,1,2.342.634A2.673,2.673,0,0,1,31.372,8.878ZM33.2,15.1V6.641h2V15.1ZM34.2,5.442a1.151,1.151,0,0,1-.816-.318,1.032,1.032,0,0,1,0-1.531,1.2,1.2,0,0,1,1.63,0,1.034,1.034,0,0,1,0,1.531A1.147,1.147,0,0,1,34.2,5.442Zm6.726,9.824a4.076,4.076,0,0,1-2.172-.556,3.676,3.676,0,0,1-1.394-1.541,5.045,5.045,0,0,1-.487-2.264,5.016,5.016,0,0,1,.5-2.279,3.722,3.722,0,0,1,1.4-1.541,4.025,4.025,0,0,1,2.144-.555,4.206,4.206,0,0,1,1.827.378A3.1,3.1,0,0,1,44.552,9.57H42.645A1.821,1.821,0,0,0,42.1,8.547a1.612,1.612,0,0,0-1.152-.409,1.808,1.808,0,0,0-1.075.328,2.121,2.121,0,0,0-.717.939A3.783,3.783,0,0,0,38.9,10.87a3.93,3.93,0,0,0,.253,1.486,2.128,2.128,0,0,0,.714.953,1.93,1.93,0,0,0,1.872.164,1.562,1.562,0,0,0,.588-.489,1.868,1.868,0,0,0,.323-.774h1.907a3.3,3.3,0,0,1-.53,1.586,3.127,3.127,0,0,1-1.244,1.08A4.118,4.118,0,0,1,40.927,15.266Z" transform="translate(27.388 106.367)" fill="#bcbcbc"/><g transform="matrix(1, 0, 0, 1, 0.24, 2.66)" filter="url(#a)"><rect width="86" height="86" rx="12" transform="translate(4.5 1.5)" fill="#fff"/></g><path d="M28.856,31.076c-3.677,0-6.659-2.484-6.659-5.549s2.982-5.549,6.659-5.549a7.752,7.752,0,0,1,2.22.341V9.989L13.318,14.428V31.076h-.134c-.617,2.533-3.3,4.439-6.525,4.439C2.982,35.515,0,33.031,0,29.966s2.982-5.549,6.659-5.549a7.752,7.752,0,0,1,2.22.341V5.549L31.076,0h4.439V25.526C35.515,28.592,32.533,31.076,28.856,31.076Z" transform="translate(29.737 29.157)" fill="#369bb2"/></g></svg>