<svg xmlns="http://www.w3.org/2000/svg" xmlns:xlink="http://www.w3.org/1999/xlink" width="95" height="119.446" viewBox="0 0 95 119.446"><defs><filter id="a" x="0" y="0" width="95" height="95" filterUnits="userSpaceOnUse"><feOffset dy="3" input="SourceAlpha"/><feGaussianBlur stdDeviation="1.5" result="b"/><feFlood flood-opacity="0.039"/><feComposite operator="in" in2="b"/><feComposite in="SourceGraphic"/></filter></defs><g transform="translate(-1.006 -2.136)"><g transform="matrix(1, 0, 0, 1, 1.01, 2.14)" filter="url(#a)"><rect width="86" height="86" rx="12" transform="translate(4.5 1.5)" fill="#fff"/></g><path d="M35.986,23.5a3.379,3.379,0,0,0,2.4-.961A3.224,3.224,0,0,0,39.4,20.081a3.246,3.246,0,0,0-1.013-2.455,3.484,3.484,0,0,0-4.805,0,3.246,3.246,0,0,0-1.013,2.455,3.224,3.224,0,0,0,1.013,2.455A3.379,3.379,0,0,0,35.986,23.5Zm-6.832-9.073a3.461,3.461,0,0,0,3.416-3.416,3.3,3.3,0,0,0-1.013-2.4,3.355,3.355,0,0,0-4.805,0,3.355,3.355,0,0,0,0,4.805A3.288,3.288,0,0,0,29.154,14.423Zm-11.314,0a3.461,3.461,0,0,0,3.416-3.416,3.3,3.3,0,0,0-1.013-2.4,3.355,3.355,0,0,0-4.805,0,3.355,3.355,0,0,0,0,4.805A3.288,3.288,0,0,0,17.84,14.423ZM11.007,23.5a3.379,3.379,0,0,0,2.4-.961,3.224,3.224,0,0,0,1.013-2.455,3.246,3.246,0,0,0-1.013-2.455,3.484,3.484,0,0,0-4.805,0,3.246,3.246,0,0,0-1.013,2.455A3.224,3.224,0,0,0,8.6,22.536,3.379,3.379,0,0,0,11.007,23.5ZM23.5,3A21.086,21.086,0,0,1,37.963,8.338a16.634,16.634,0,0,1,6.031,12.917,10.819,10.819,0,0,1-3.364,8.007,11.086,11.086,0,0,1-8.06,3.309H28.621a3.235,3.235,0,0,0-2.455,1.013,3.374,3.374,0,0,0-.961,2.4,3.535,3.535,0,0,0,.854,2.241,3.669,3.669,0,0,1,.854,2.348A3.29,3.29,0,0,1,23.5,43.993,19.766,19.766,0,0,1,8.978,38.015,19.766,19.766,0,0,1,3,23.5,19.766,19.766,0,0,1,8.978,8.978,19.766,19.766,0,0,1,23.5,3Z" transform="translate(25.506 23.636)" fill="#f1df81"/><path d="M2.62,15.186H.44L4.413,3.909h2.52l3.973,11.277H8.726L5.717,6.222H5.629Zm.07-4.423H8.638v1.643H2.691Zm9.616,4.423V6.728h1.934v1.41h.088A2.12,2.12,0,0,1,15.126,7a2.181,2.181,0,0,1,1.292-.4q.165,0,.372.015a2.774,2.774,0,0,1,.346.044v1.83a2.653,2.653,0,0,0-.4-.078,3.9,3.9,0,0,0-.523-.037,2.02,2.02,0,0,0-.98.234,1.752,1.752,0,0,0-.679.648,1.811,1.811,0,0,0-.248.951v4.973ZM23.14,6.728V8.27H18.281V6.728ZM19.479,4.7h2v7.943a1.243,1.243,0,0,0,.122.612.632.632,0,0,0,.326.289,1.273,1.273,0,0,0,.455.078,1.928,1.928,0,0,0,.34-.028q.156-.028.241-.047l.335,1.555q-.161.054-.454.121a3.733,3.733,0,0,1-.718.078,3.212,3.212,0,0,1-1.349-.229,2.074,2.074,0,0,1-.949-.777,2.32,2.32,0,0,1-.345-1.324Z" transform="translate(32.675 106.279)" fill="#bcbcbc"/></g></svg>